<svg xmlns="http://www.w3.org/2000/svg" viewBox="0 0 158.21 159.23"><path d="M49.05,104.67l.49.42a2.55,2.55,0,0,0,1.25.42l.62,0a1.81,1.81,0,0,0,1-.17,1.78,1.78,0,0,0,.84-.48,1.84,1.84,0,0,0,.57-.78,2,2,0,0,0,.27-1c0-.23,0-.45,0-.68a2.6,2.6,0,0,0-.59-1.14l-.49-.43a2.58,2.58,0,0,0-1.26-.41l-.62,0a1.94,1.94,0,0,0-1,.16,2,2,0,0,0-.84.48,1.82,1.82,0,0,0-.56.79,1.78,1.78,0,0,0-.27,1l.05.67A2.48,2.48,0,0,0,49.05,104.67Z" style="fill:#fff"/><path d="M150.93,12.46a1.93,1.93,0,0,0,.79.57,2,2,0,0,0,1,.27l.68-.06a2.41,2.41,0,0,0,1.14-.59c.14-.16.29-.32.43-.49a2.54,2.54,0,0,0,.41-1.25l0-.78a2,2,0,0,0-.16-1,2,2,0,0,0-.48-.84,1.82,1.82,0,0,0-.79-.56,1.78,1.78,0,0,0-1-.27l-.67,0a2.48,2.48,0,0,0-1.15.59l-.42.49a2.55,2.55,0,0,0-.42,1.25l0,.79a1.82,1.82,0,0,0,.17,1A1.85,1.85,0,0,0,150.93,12.46Z" style="fill:#fff"/><path d="M142.88,38.44a2.52,2.52,0,1,0-2.66,2.39A2.56,2.56,0,0,0,142.88,38.44Z" style="fill:#fff"/><path d="M135.18,8.35a2.53,2.53,0,1,0-2.66,2.39A2.55,2.55,0,0,0,135.18,8.35Z" style="fill:#fff"/><path d="M134.26,24.51a2.53,2.53,0,1,0-2.66,2.39A2.58,2.58,0,0,0,134.26,24.51Z" style="fill:#fff"/><path d="M116.53,35a2.53,2.53,0,1,0-2.66,2.39A2.55,2.55,0,0,0,116.53,35Z" style="fill:#fff"/><path d="M150.26,22.84a2.53,2.53,0,1,0-2.66,2.39A2.55,2.55,0,0,0,150.26,22.84Z" style="fill:#fff"/><path d="M112.75,13.5a2.54,2.54,0,0,0-1.25-.41h-.29a1.84,1.84,0,0,0-1,.16,2.32,2.32,0,0,0-1.41,1.26,2,2,0,0,0-.27,1l.06.67a2.39,2.39,0,0,0,.59,1.15l.49.42a2.45,2.45,0,0,0,1.25.41l.29,0a2.91,2.91,0,0,0,1.82-.64,1.93,1.93,0,0,0,.57-.79,2,2,0,0,0,.27-1l-.06-.68a2.41,2.41,0,0,0-.59-1.14Z" style="fill:#fff"/><path d="M152.73,49a1.82,1.82,0,0,0,.79.56,1.78,1.78,0,0,0,1,.27l.67-.05a2.48,2.48,0,0,0,1.15-.59l.42-.49a2.55,2.55,0,0,0,.42-1.25l0-.59a2,2,0,0,0-.17-1,1.78,1.78,0,0,0-.48-.84,1.82,1.82,0,0,0-.78-.56,1.78,1.78,0,0,0-1-.27l-.68,0a2.69,2.69,0,0,0-1.15.59l-.42.49a2.45,2.45,0,0,0-.41,1.26l0,.59a1.94,1.94,0,0,0,.16,1A2,2,0,0,0,152.73,49Z" style="fill:#fff"/><path d="M139.7,53.88a2.53,2.53,0,1,0,2.39,2.66A2.57,2.57,0,0,0,139.7,53.88Z" style="fill:#fff"/><path d="M123,48.13a2,2,0,0,0-.27,1l.06.68a2.49,2.49,0,0,0,.59,1.15l.48.42a2.58,2.58,0,0,0,1.26.41l.46,0A2.44,2.44,0,0,0,128,50.35a1.84,1.84,0,0,0,.27-1l-.05-.68a2.63,2.63,0,0,0-.59-1.15l-.49-.42a2.45,2.45,0,0,0-1.26-.41l-.46,0a1.92,1.92,0,0,0-1,.17,1.78,1.78,0,0,0-.84.48A1.84,1.84,0,0,0,123,48.13Z" style="fill:#fff"/><path d="M144.07,87a1.82,1.82,0,0,0,.56-.79,1.78,1.78,0,0,0,.27-1c0-.22,0-.45-.05-.67a2.48,2.48,0,0,0-.59-1.15l-.49-.43a2.65,2.65,0,0,0-1.26-.41h-.28a1.86,1.86,0,0,0-1,.16,2.09,2.09,0,0,0-.84.48,2,2,0,0,0-.56.78,1.84,1.84,0,0,0-.27,1c0,.22,0,.45.05.67a2.58,2.58,0,0,0,.59,1.15l.49.42a2.45,2.45,0,0,0,1.26.41l.28,0a2.91,2.91,0,0,0,1.83-.64Z" style="fill:#fff"/><path d="M153.16,134.08a2.52,2.52,0,1,0,2.65-2.39A2.55,2.55,0,0,0,153.16,134.08Z" style="fill:#fff"/><path d="M156.63,151.49a2.53,2.53,0,1,0-2.66,2.38A2.56,2.56,0,0,0,156.63,151.49Z" style="fill:#fff"/><path d="M139.5,125.65a2.53,2.53,0,1,0-2.66,2.39A2.58,2.58,0,0,0,139.5,125.65Z" style="fill:#fff"/><path d="M151.92,120.6a2.53,2.53,0,1,0-2.39-2.66A2.57,2.57,0,0,0,151.92,120.6Z" style="fill:#fff"/><path d="M155.78,99.11l.42-.49a2.55,2.55,0,0,0,.41-1.26l0-.58A2.76,2.76,0,0,0,156,95a1.91,1.91,0,0,0-.79-.56,1.78,1.78,0,0,0-1-.27l-.67,0a2.48,2.48,0,0,0-1.15.59l-.42.49a2.56,2.56,0,0,0-.42,1.26l0,.58a2,2,0,0,0,.17,1,1.78,1.78,0,0,0,.48.84,1.74,1.74,0,0,0,.78.56,1.78,1.78,0,0,0,1,.27l.68,0A2.58,2.58,0,0,0,155.78,99.11Z" style="fill:#fff"/><path d="M131.3,109.31a2,2,0,0,0,.56-.79,1.78,1.78,0,0,0,.27-1l0-.68a2.6,2.6,0,0,0-.59-1.14l-.49-.43a2.55,2.55,0,0,0-1.26-.41l-.46,0a1.92,1.92,0,0,0-1,.16,2,2,0,0,0-.84.48,1.93,1.93,0,0,0-.57.79,2,2,0,0,0-.27,1c0,.22,0,.45,0,.67a2.58,2.58,0,0,0,.59,1.15l.49.42a2.59,2.59,0,0,0,1.26.42l.46,0a1.86,1.86,0,0,0,1-.17A2,2,0,0,0,131.3,109.31Z" style="fill:#fff"/><path d="M122.77,83.47a2.53,2.53,0,1,0-2.66,2.39A2.58,2.58,0,0,0,122.77,83.47Z" style="fill:#fff"/><path d="M132.65,74.07a2.48,2.48,0,0,0,.41-1.26l0-.59a1.94,1.94,0,0,0-.17-1,1.78,1.78,0,0,0-.48-.84,1.9,1.9,0,0,0-.78-.57,2,2,0,0,0-1-.27l-.68.06a2.44,2.44,0,0,0-1.15.59l-.42.49a2.45,2.45,0,0,0-.41,1.25l0,.59a1.8,1.8,0,0,0,.16,1,2.32,2.32,0,0,0,1.26,1.41,2,2,0,0,0,1,.27l.68,0a2.63,2.63,0,0,0,1.15-.59Z" style="fill:#fff"/><path d="M102.25,69.39a2,2,0,0,0,.16,1,2.09,2.09,0,0,0,.48.84,1.91,1.91,0,0,0,.79.56,1.78,1.78,0,0,0,1,.27l.67,0a2.58,2.58,0,0,0,1.15-.59l.42-.49a2.56,2.56,0,0,0,.42-1.26l0-.59a1.94,1.94,0,0,0-.17-1,1.78,1.78,0,0,0-.48-.84,1.84,1.84,0,0,0-.78-.57,1.87,1.87,0,0,0-1-.26l-.68,0a2.58,2.58,0,0,0-1.15.59l-.42.49a2.54,2.54,0,0,0-.41,1.25Z" style="fill:#fff"/><path d="M106.85,107.41l.42-.49a2.53,2.53,0,0,0,.38-1,3.14,3.14,0,0,0,.56-1.46,1.92,1.92,0,0,0-.16-1,2,2,0,0,0-.48-.84l-.49-.43a2.65,2.65,0,0,0-1.26-.41l-.67.06a2.39,2.39,0,0,0-1.15.59l-.12.11a7.45,7.45,0,0,0-.52.6l-.09.14a.43.43,0,0,0,0,.07c-.11.21-.21.43-.31.65a1.15,1.15,0,0,0-.11.31c-.06.24-.1.49-.14.73,0,0,0,.06,0,.09a1.37,1.37,0,0,0,0,.19,2.76,2.76,0,0,0,.64,1.83,1.91,1.91,0,0,0,.79.56,1.78,1.78,0,0,0,1,.27l.67,0A2.58,2.58,0,0,0,106.85,107.41Z" style="fill:#fff"/><path d="M153.51,70.28l.42-.49a2.53,2.53,0,0,0,.37-.94,2.29,2.29,0,0,0,.3-.5,2,2,0,0,0,.27-1,1.94,1.94,0,0,0-.17-1,1.78,1.78,0,0,0-.48-.84l-.49-.42a2.45,2.45,0,0,0-1.25-.41l-.68,0a2.53,2.53,0,0,0-1.15.59l-.12.11c-.18.2-.35.39-.51.6l-.1.14,0,.07c-.11.21-.22.43-.32.65a1.92,1.92,0,0,0-.11.31c-.05.25-.09.49-.13.73a.29.29,0,0,0,0,.09c0,.07,0,.13,0,.2a1.94,1.94,0,0,0,.17,1,1.78,1.78,0,0,0,.48.84,1.84,1.84,0,0,0,.78.57,1.87,1.87,0,0,0,1,.26l.68,0A2.58,2.58,0,0,0,153.51,70.28Z" style="fill:#fff"/><path d="M4.8,13.91a1.93,1.93,0,0,0,.79.57,2,2,0,0,0,1,.27l.68-.06a2.41,2.41,0,0,0,1.14-.59c.14-.16.29-.32.43-.49a2.54,2.54,0,0,0,.41-1.25l0-.79a1.94,1.94,0,0,0-.16-1,2,2,0,0,0-.48-.84,1.93,1.93,0,0,0-.79-.57,2,2,0,0,0-1-.27L6.19,9A2.48,2.48,0,0,0,5,9.56l-.42.49A2.55,2.55,0,0,0,4.2,11.3c0,.27,0,.53,0,.79a1.84,1.84,0,0,0,.17,1A1.85,1.85,0,0,0,4.8,13.91Z" style="fill:#fff"/><path d="M15,39.09a2.53,2.53,0,1,0-2.66,2.39A2.58,2.58,0,0,0,15,39.09Z" style="fill:#fff"/><path d="M5.05,25.21a2.55,2.55,0,0,0-2.39-2.66,2.53,2.53,0,0,0-.27,5.05A2.57,2.57,0,0,0,5.05,25.21Z" style="fill:#fff"/><path d="M1.65,57.38a1.82,1.82,0,0,0,.78.56,1.78,1.78,0,0,0,1,.27l.68-.05a2.69,2.69,0,0,0,1.15-.59l.42-.49a2.45,2.45,0,0,0,.41-1.26l0-.58a2,2,0,0,0-.16-1,2,2,0,0,0-.48-.84,1.82,1.82,0,0,0-.79-.56,1.78,1.78,0,0,0-1-.27L3,52.63a2.48,2.48,0,0,0-1.15.59l-.42.49A2.56,2.56,0,0,0,1,55l0,.58a2,2,0,0,0,.17,1A1.78,1.78,0,0,0,1.65,57.38Z" style="fill:#fff"/><path d="M7,88.51a1.82,1.82,0,0,0,.56-.78,1.78,1.78,0,0,0,.27-1c0-.23,0-.45-.05-.68a2.63,2.63,0,0,0-.59-1.15l-.49-.42a2.45,2.45,0,0,0-1.26-.41l-.28,0a2,2,0,0,0-1,.17,1.78,1.78,0,0,0-.84.48,1.82,1.82,0,0,0-.56.78,1.78,1.78,0,0,0-.27,1c0,.23,0,.45.05.68a2.69,2.69,0,0,0,.59,1.15l.49.42a2.55,2.55,0,0,0,1.26.41l.28,0a2,2,0,0,0,1-.17A1.88,1.88,0,0,0,7,88.51Z" style="fill:#fff"/><path d="M0,138.49a2.56,2.56,0,0,0,2.39,2.66,2.53,2.53,0,1,0,.27-5.05A2.58,2.58,0,0,0,0,138.49Z" style="fill:#fff"/><path d="M9.23,155.54a2.53,2.53,0,1,0-2.66,2.38A2.55,2.55,0,0,0,9.23,155.54Z" style="fill:#fff"/><path d="M7.73,116.73a2.53,2.53,0,1,0,.27-5,2.53,2.53,0,1,0-.27,5Z" style="fill:#fff"/><path d="M22.31,86.26l.42-.49a2.45,2.45,0,0,0,.41-1.26l0-.59a1.84,1.84,0,0,0-.16-1,2,2,0,0,0-.48-.84,1.85,1.85,0,0,0-.78-.56,1.84,1.84,0,0,0-1-.27l-.68,0a2.53,2.53,0,0,0-1.15.59l-.42.49a2.45,2.45,0,0,0-.41,1.25l0,.59a2,2,0,0,0,.17,1,1.78,1.78,0,0,0,.48.84,1.88,1.88,0,0,0,.78.56,1.84,1.84,0,0,0,1,.27l.68-.05A2.63,2.63,0,0,0,22.31,86.26Z" style="fill:#fff"/><path d="M12.61,75.33l.42-.49a2.55,2.55,0,0,0,.38-.94,2,2,0,0,0,.29-.51,1.78,1.78,0,0,0,.27-1,1.94,1.94,0,0,0-.16-1,2,2,0,0,0-.48-.84l-.49-.42a2.56,2.56,0,0,0-1.26-.42l-.67.06a2.39,2.39,0,0,0-1.15.59l-.12.11a7.45,7.45,0,0,0-.52.6L9,71.27l0,.07c-.11.21-.21.43-.31.65a1.28,1.28,0,0,0-.11.31c-.06.24-.1.49-.14.73a.28.28,0,0,0,0,.09,1.37,1.37,0,0,0,0,.19,2,2,0,0,0,.16,1,2,2,0,0,0,.48.84,1.82,1.82,0,0,0,.79.56,1.78,1.78,0,0,0,1,.27l.67,0A2.48,2.48,0,0,0,12.61,75.33Z" style="fill:#fff"/><path d="M116.18,124.57a2.52,2.52,0,1,0-2.38-2.65A2.55,2.55,0,0,0,116.18,124.57Z" style="fill:#fff"/><path d="M126.62,147.7a2.53,2.53,0,1,0-2.66,2.39A2.56,2.56,0,0,0,126.62,147.7Z" style="fill:#fff"/><path d="M134.6,157.54a2,2,0,0,0,.48.84,1.9,1.9,0,0,0,.78.57,2,2,0,0,0,1,.27l.68-.06a2.44,2.44,0,0,0,1.15-.59l.42-.49a2.45,2.45,0,0,0,.41-1.25l0-.59a1.8,1.8,0,0,0-.16-1,1.87,1.87,0,0,0-.48-.84,1.9,1.9,0,0,0-.78-.57,2,2,0,0,0-1-.27l-.68,0a2.63,2.63,0,0,0-1.15.59l-.42.49a2.48,2.48,0,0,0-.41,1.26l0,.59A1.84,1.84,0,0,0,134.6,157.54Z" style="fill:#fff"/><path d="M101.87,159l.37.13a2,2,0,0,0,1,.1,1.91,1.91,0,0,0,1-.25,2,2,0,0,0,.74-.61,2,2,0,0,0,.5-.84l.12-.67a2.53,2.53,0,0,0-.27-1.29c-.13-.17-.25-.35-.37-.53l0-.05a2.61,2.61,0,0,0-.2-.3A1.82,1.82,0,0,0,104,154a1.86,1.86,0,0,0-.92-.35,1.82,1.82,0,0,0-1,0l-.62.22a2.46,2.46,0,0,0-1,.86c-.1.19-.19.39-.29.59a2.54,2.54,0,0,0-.07,1.34l.06.48a2.53,2.53,0,0,0,.59,1.15A2.61,2.61,0,0,0,101.87,159Z" style="fill:#fff"/><path d="M94.39,120.39l.49.42a2.45,2.45,0,0,0,1.26.41l.46,0a1.94,1.94,0,0,0,1-.17,1.78,1.78,0,0,0,.84-.48,1.84,1.84,0,0,0,.57-.78,2,2,0,0,0,.27-1l-.06-.68a2.44,2.44,0,0,0-.59-1.15l-.49-.42a2.45,2.45,0,0,0-1.25-.41l-.46,0a2,2,0,0,0-1,.17,1.78,1.78,0,0,0-.84.48,1.82,1.82,0,0,0-.56.78,1.78,1.78,0,0,0-.27,1l0,.68A2.63,2.63,0,0,0,94.39,120.39Z" style="fill:#fff"/><path d="M108,140.06a2.53,2.53,0,1,0-2.39-2.66A2.56,2.56,0,0,0,108,140.06Z" style="fill:#fff"/><path d="M75.54,158l.42-.49a2.58,2.58,0,0,0,.41-1.26l0-.36a2.91,2.91,0,0,0-.64-1.83,1.82,1.82,0,0,0-.79-.56,1.78,1.78,0,0,0-1-.27l-.67.05a2.48,2.48,0,0,0-1.15.59c-.14.16-.28.33-.43.49a2.65,2.65,0,0,0-.41,1.26c0,.12,0,.24,0,.36a1.91,1.91,0,0,0,.17,1,1.78,1.78,0,0,0,.48.84,1.84,1.84,0,0,0,.78.57,2,2,0,0,0,1,.27l.68,0A2.69,2.69,0,0,0,75.54,158Z" style="fill:#fff"/><path d="M44.25,138.17l.42-.49a2.59,2.59,0,0,0,.42-1.26l0-.36a2,2,0,0,0-.17-1,1.78,1.78,0,0,0-.48-.84,1.74,1.74,0,0,0-.78-.56,1.81,1.81,0,0,0-1-.27l-.68,0a2.53,2.53,0,0,0-1.15.59l-.42.49a2.45,2.45,0,0,0-.41,1.26l0,.36a1.92,1.92,0,0,0,.16,1,2,2,0,0,0,.48.84,1.93,1.93,0,0,0,.79.57,2,2,0,0,0,1,.27l.67-.06A2.47,2.47,0,0,0,44.25,138.17Z" style="fill:#fff"/><path d="M105.11,4.65a2.53,2.53,0,1,0-5-.27,2.53,2.53,0,0,0,5,.27Z" style="fill:#fff"/><path d="M85.56,17.18a2.53,2.53,0,1,0-2.66,2.39A2.56,2.56,0,0,0,85.56,17.18Z" style="fill:#fff"/><path d="M54.4,4.93l.06,0a1.83,1.83,0,0,0,.46-.28,1.92,1.92,0,0,0,.69-.67A2,2,0,0,0,56,3a2,2,0,0,0,0-1l-.23-.62a2.51,2.51,0,0,0-.85-.95L54.3.15A2.44,2.44,0,0,0,53.46,0a1.43,1.43,0,0,0-.29,0l-.68.05a2.69,2.69,0,0,0-1.15.59l-.42.49a2.55,2.55,0,0,0-.41,1.26l-.06.34.06.67a1.92,1.92,0,0,0,.41.89,1.27,1.27,0,0,0,.42.47,1.85,1.85,0,0,0,.84.5l.66.13.68-.06A1.87,1.87,0,0,0,54.4,4.93Z" style="fill:#fff"/><path d="M31.7,9.74l.42-.49A2.45,2.45,0,0,0,32.53,8l0-.59a1.84,1.84,0,0,0-.16-1,1.87,1.87,0,0,0-.48-.84A1.8,1.8,0,0,0,31.14,5a1.84,1.84,0,0,0-1-.27l-.68,0a2.53,2.53,0,0,0-1.15.59l-.42.49a2.45,2.45,0,0,0-.41,1.25l0,.59a1.86,1.86,0,0,0,.16,1,2,2,0,0,0,.48.84,1.88,1.88,0,0,0,.78.56,1.84,1.84,0,0,0,1,.27l.68-.05A2.63,2.63,0,0,0,31.7,9.74Z" style="fill:#fff"/><path d="M66.87,20.31a2.53,2.53,0,1,0-2.66,2.39A2.57,2.57,0,0,0,66.87,20.31Z" style="fill:#fff"/><path d="M80.58,6.3a2.52,2.52,0,1,0-2.66,2.39A2.55,2.55,0,0,0,80.58,6.3Z" style="fill:#fff"/><path d="M93.18,34.09l-.43-.62a2,2,0,0,0-.79-.56,1.78,1.78,0,0,0-1-.27,1.92,1.92,0,0,0-1,.16,2,2,0,0,0-.84.48l-.43.49A2.55,2.55,0,0,0,88.34,35l.06.67A2.47,2.47,0,0,0,89,36.85l.44.62a1.91,1.91,0,0,0,.78.56,2,2,0,0,0,1,.27,1.81,1.81,0,0,0,1-.17,1.85,1.85,0,0,0,.84-.47l.43-.49a2.58,2.58,0,0,0,.41-1.26c0-.22,0-.45,0-.68A2.6,2.6,0,0,0,93.18,34.09Z" style="fill:#fff"/><path d="M104.43,52.32a2.53,2.53,0,0,0-.59-1.15l-.49-.42a2.45,2.45,0,0,0-1.26-.41l-.46,0a1.94,1.94,0,0,0-1,.17,1.78,1.78,0,0,0-.84.48,1.84,1.84,0,0,0-.57.78,2,2,0,0,0-.27,1l.06.68a2.49,2.49,0,0,0,.59,1.15l.49.42a2.45,2.45,0,0,0,1.25.41l.46,0a2,2,0,0,0,1-.17,2.26,2.26,0,0,0,1.4-1.26,1.81,1.81,0,0,0,.27-1C104.47,52.77,104.45,52.55,104.43,52.32Z" style="fill:#fff"/><path d="M76.41,50.31a2.76,2.76,0,0,0,.64,1.83,1.82,1.82,0,0,0,.79.56,1.78,1.78,0,0,0,1,.27l.67,0a2.48,2.48,0,0,0,1.15-.59l.42-.49a2.56,2.56,0,0,0,.42-1.26l0-.58a2,2,0,0,0-.17-1,1.78,1.78,0,0,0-.48-.84,1.82,1.82,0,0,0-.78-.56,1.78,1.78,0,0,0-1-.27l-.68,0a2.69,2.69,0,0,0-1.15.59l-.42.49a2.45,2.45,0,0,0-.41,1.26Z" style="fill:#fff"/><path d="M101.69,18.64A2.53,2.53,0,1,0,99,21,2.55,2.55,0,0,0,101.69,18.64Z" style="fill:#fff"/><path d="M64.63,39.68a2,2,0,0,0,.56-.79,2,2,0,0,0,.27-1c0-.22,0-.45,0-.67a2.58,2.58,0,0,0-.59-1.15l-.49-.42a2.56,2.56,0,0,0-1.26-.42l-.46,0a1.9,1.9,0,0,0-1,.16,2.06,2.06,0,0,0-.85.48,2,2,0,0,0-.56.79,2,2,0,0,0-.27,1l0,.67a2.58,2.58,0,0,0,.59,1.15l.49.42a2.56,2.56,0,0,0,1.26.42l.46,0a1.9,1.9,0,0,0,1-.16A2.06,2.06,0,0,0,64.63,39.68Z" style="fill:#fff"/><path d="M46.2,55.21a2.59,2.59,0,0,0,.7-1.08c.18-.39.35-.77.53-1.15a2,2,0,0,0,.1-1,1.88,1.88,0,0,0-.25-.95,2,2,0,0,0-.61-.75,1.93,1.93,0,0,0-.84-.49l-.66-.13a2.55,2.55,0,0,0-1.3.28l-.53.36a2.61,2.61,0,0,0-.71,1.08l-.52,1.15a1.84,1.84,0,0,0-.1,1,1.88,1.88,0,0,0,.25.95,2,2,0,0,0,.61.75,1.89,1.89,0,0,0,.83.49l.67.13a2.49,2.49,0,0,0,1.29-.28Z" style="fill:#fff"/><path d="M27.47,26.21a2.53,2.53,0,1,0-2.66,2.39A2.55,2.55,0,0,0,27.47,26.21Z" style="fill:#fff"/><path d="M41.48,33.13l.49.42a2.56,2.56,0,0,0,1.26.42l.46,0a2.91,2.91,0,0,0,1.82-.64,1.93,1.93,0,0,0,.57-.79,2,2,0,0,0,.27-1l-.06-.67a2.39,2.39,0,0,0-.59-1.15l-.49-.43A2.65,2.65,0,0,0,44,28.94l-.46,0a2.76,2.76,0,0,0-1.83.64,1.91,1.91,0,0,0-.56.79,1.78,1.78,0,0,0-.27,1l0,.67A2.48,2.48,0,0,0,41.48,33.13Z" style="fill:#fff"/><path d="M64.26,63.84a1.8,1.8,0,0,0,.56-.78,1.84,1.84,0,0,0,.27-1c0-.23,0-.46,0-.68a2.53,2.53,0,0,0-.59-1.15L64,59.85a2.45,2.45,0,0,0-1.26-.41l-.46,0a1.94,1.94,0,0,0-1,.17,1.78,1.78,0,0,0-.84.48,1.84,1.84,0,0,0-.57.78,2,2,0,0,0-.27,1l.06.68a2.49,2.49,0,0,0,.59,1.15l.49.42a2.54,2.54,0,0,0,1.25.41l.46,0a1.86,1.86,0,0,0,1-.16A2,2,0,0,0,64.26,63.84Z" style="fill:#fff"/><path d="M77.29,91.17a1.84,1.84,0,0,0-.57.78,2,2,0,0,0-.27,1l.06.68a2.53,2.53,0,0,0,.59,1.15l.49.42a2.45,2.45,0,0,0,1.25.41l.29,0a1.92,1.92,0,0,0,1-.17,1.78,1.78,0,0,0,.84-.48,1.84,1.84,0,0,0,.57-.78,2,2,0,0,0,.27-1l-.06-.68a2.49,2.49,0,0,0-.59-1.15L80.65,91a2.54,2.54,0,0,0-1.25-.41l-.29,0a1.94,1.94,0,0,0-1,.17A1.78,1.78,0,0,0,77.29,91.17Z" style="fill:#fff"/><path d="M97.93,87a2.53,2.53,0,1,0-2.66,2.39A2.55,2.55,0,0,0,97.93,87Z" style="fill:#fff"/><path d="M52.34,88.72a1.94,1.94,0,0,0,1-.17,1.78,1.78,0,0,0,.84-.48,1.84,1.84,0,0,0,.57-.78,2,2,0,0,0,.27-1l-.06-.68a2.49,2.49,0,0,0-.59-1.15l-.49-.42a2.45,2.45,0,0,0-1.25-.41l-.46,0a2,2,0,0,0-1,.17,1.78,1.78,0,0,0-.84.48,1.74,1.74,0,0,0-.56.78,1.81,1.81,0,0,0-.27,1l0,.68a2.53,2.53,0,0,0,.59,1.15l.49.42a2.45,2.45,0,0,0,1.26.41Z" style="fill:#fff"/><path d="M84,70.48a2.53,2.53,0,1,0-2.66,2.39A2.55,2.55,0,0,0,84,70.48Z" style="fill:#fff"/><path d="M85.47,112.15l.42-.49a2.48,2.48,0,0,0,.41-1.26c0-.23,0-.45,0-.68a2.6,2.6,0,0,0-.59-1.14l-.43-.62a1.91,1.91,0,0,0-.79-.56,1.78,1.78,0,0,0-1-.27,1.94,1.94,0,0,0-1,.16,2,2,0,0,0-.84.48l-.42.49a2.56,2.56,0,0,0-.42,1.26l.06.67a2.39,2.39,0,0,0,.59,1.15c.14.21.28.41.43.61a1.84,1.84,0,0,0,.78.57,2,2,0,0,0,1,.27,2.91,2.91,0,0,0,1.83-.64Z" style="fill:#fff"/><path d="M79.09,129.46c.14-.16.28-.33.43-.49a2.65,2.65,0,0,0,.41-1.26l0-.58a2.91,2.91,0,0,0-.64-1.83,1.91,1.91,0,0,0-.79-.56,1.78,1.78,0,0,0-1-.27l-.68,0a2.6,2.6,0,0,0-1.14.59l-.43.49a2.55,2.55,0,0,0-.41,1.26l0,.58a2.76,2.76,0,0,0,.64,1.83,1.82,1.82,0,0,0,.79.56,1.78,1.78,0,0,0,1,.27l.67,0A2.48,2.48,0,0,0,79.09,129.46Z" style="fill:#fff"/><path d="M37,119.68a1.93,1.93,0,0,0,.57-.79,2,2,0,0,0,.27-1l-.06-.68a2.41,2.41,0,0,0-.59-1.14l-.49-.43a2.54,2.54,0,0,0-1.25-.41l-.46,0a2.76,2.76,0,0,0-1.83.64,1.91,1.91,0,0,0-.56.79,1.78,1.78,0,0,0-.27,1c0,.22,0,.45,0,.67a2.58,2.58,0,0,0,.59,1.15l.49.42a2.56,2.56,0,0,0,1.26.42l.46,0a1.82,1.82,0,0,0,1-.17A1.85,1.85,0,0,0,37,119.68Z" style="fill:#fff"/><path d="M65.3,120l.42-.49a2.55,2.55,0,0,0,.41-1.26l0-.59a1.94,1.94,0,0,0-.16-1,2,2,0,0,0-.48-.84,1.93,1.93,0,0,0-.79-.57,1.87,1.87,0,0,0-1-.26l-.67,0a2.48,2.48,0,0,0-1.15.59l-.42.49a2.55,2.55,0,0,0-.42,1.25l0,.59a2,2,0,0,0,.17,1,1.88,1.88,0,0,0,.48.84,1.82,1.82,0,0,0,.78.56,1.78,1.78,0,0,0,1,.27l.68,0A2.69,2.69,0,0,0,65.3,120Z" style="fill:#fff"/><path d="M87.24,145.05l.42-.49a2.54,2.54,0,0,0,.41-1.25l0-.59a2,2,0,0,0-.16-1,2.09,2.09,0,0,0-.48-.84,2,2,0,0,0-.79-.56,1.78,1.78,0,0,0-1-.27l-.67.05a2.58,2.58,0,0,0-1.15.59l-.42.49a2.56,2.56,0,0,0-.42,1.26l0,.59a1.94,1.94,0,0,0,.17,1,1.78,1.78,0,0,0,.48.84,1.84,1.84,0,0,0,.78.57,2,2,0,0,0,1,.27l.68-.06A2.58,2.58,0,0,0,87.24,145.05Z" style="fill:#fff"/><path d="M46.12,156.53a2.53,2.53,0,1,0-2.66,2.39A2.57,2.57,0,0,0,46.12,156.53Z" style="fill:#fff"/><path d="M27.34,153a2,2,0,0,0,.74-.61,2,2,0,0,0,.5-.84c0-.22.08-.44.13-.67a2.53,2.53,0,0,0-.28-1.29l-.37-.53s0,0,0-.05a2.49,2.49,0,0,0-.19-.3,1.93,1.93,0,0,0-.68-.68,1.86,1.86,0,0,0-.92-.35,1.82,1.82,0,0,0-1,0l-.62.22a2.46,2.46,0,0,0-.95.86c-.1.19-.19.39-.29.59a2.64,2.64,0,0,0-.07,1.34l.06.48A2.54,2.54,0,0,0,25,153l.37.13a2,2,0,0,0,1,.1A1.91,1.91,0,0,0,27.34,153Z" style="fill:#fff"/><path d="M60.24,147.48a2.58,2.58,0,0,0,1.15-.59l.5-.57a1.91,1.91,0,0,0,.56-.78,1.78,1.78,0,0,0,.27-1,2,2,0,0,0-.16-1,2.09,2.09,0,0,0-.48-.84l-.49-.42a2.45,2.45,0,0,0-1.26-.41l-.67.05a2.58,2.58,0,0,0-1.15.59l-.5.57a1.91,1.91,0,0,0-.56.78,1.78,1.78,0,0,0-.27,1,2,2,0,0,0,.16,1,2.09,2.09,0,0,0,.48.84l.49.42a2.55,2.55,0,0,0,1.26.41Z" style="fill:#fff"/><path d="M23.26,132.15l.49-.56a2,2,0,0,0,.57-.78,2,2,0,0,0,.27-1,1.94,1.94,0,0,0-.17-1,1.78,1.78,0,0,0-.48-.84l-.49-.42a2.45,2.45,0,0,0-1.25-.41l-.68,0a2.53,2.53,0,0,0-1.15.59l-.49.56a1.93,1.93,0,0,0-.57.79,2,2,0,0,0-.27,1,1.92,1.92,0,0,0,.17,1,1.87,1.87,0,0,0,.48.84l.49.42a2.55,2.55,0,0,0,1.25.42l.68-.06A2.44,2.44,0,0,0,23.26,132.15Z" style="fill:#fff"/><path d="M40.43,90.27a2.53,2.53,0,1,0-2.66,2.39A2.58,2.58,0,0,0,40.43,90.27Z" style="fill:#fff"/><path d="M35.18,73.41l.43-.49A2.65,2.65,0,0,0,36,71.67L36,71a2.49,2.49,0,0,0-.59-1.15l-.43-.61a1.74,1.74,0,0,0-.78-.56,1.78,1.78,0,0,0-1-.27,1.86,1.86,0,0,0-1,.16,2.09,2.09,0,0,0-.84.48l-.42.49a2.55,2.55,0,0,0-.41,1.26c0,.22,0,.45.05.67a2.58,2.58,0,0,0,.59,1.15c.15.2.29.41.43.61a1.93,1.93,0,0,0,.79.57,2,2,0,0,0,1,.27,1.92,1.92,0,0,0,1-.17A1.78,1.78,0,0,0,35.18,73.41Z" style="fill:#fff"/><path d="M30.19,51.4l.49-.56a1.93,1.93,0,0,0,.57-.79,2,2,0,0,0,.27-1,1.94,1.94,0,0,0-.17-1,1.78,1.78,0,0,0-.48-.84l-.49-.42a2.55,2.55,0,0,0-1.25-.42l-.68.06a2.49,2.49,0,0,0-1.15.59l-.49.56a2,2,0,0,0-.57.78,1.93,1.93,0,0,0-.26,1,1.84,1.84,0,0,0,.16,1,2,2,0,0,0,.48.84l.49.42a2.45,2.45,0,0,0,1.25.41L29,52A2.53,2.53,0,0,0,30.19,51.4Z" style="fill:#fff"/><path d="M26.81,103a1.29,1.29,0,0,0,.47-.43,1.23,1.23,0,0,0,.36-.54,2,2,0,0,0,.27-1c0-.12,0-.24,0-.36a2.91,2.91,0,0,0-.64-1.82l-.06-.06a1.81,1.81,0,0,0-.19-.29,2,2,0,0,0-.67-.69,2,2,0,0,0-.93-.35,2,2,0,0,0-1,0l-.61.23a2.62,2.62,0,0,0-1,.85c-.09.2-.19.4-.28.59a2.48,2.48,0,0,0-.07,1.35c0,.1,0,.2.07.3a6.55,6.55,0,0,0,.29.85l.12.23a6.37,6.37,0,0,0,.44.62l.1.11L24,103l.59.29.67.13a1.94,1.94,0,0,0,1-.17A1.27,1.27,0,0,0,26.81,103Z" style="fill:#fff"/></svg>