<svg xmlns="http://www.w3.org/2000/svg" viewBox="0 0 213.03 36.5"><path d="M155.45,62.59c-.53,1.12-.6,2.77.77,3.35,2.33,1,4,3.09,6.58,3.56,2.15,1.32,4.18,2.92,6.86,3.08.12-.15.33-.17.59-.12-.26,0-.47,0-.59.12l4.1,2.89-2.33,1.41c-3.73-1.75-7.32-3.89-11.55-4.33l-1.51-.78c-3.05-2-6.56-2.81-10-3.86l-1.25-.13h0c-1.35-1.36-3.14-1.74-4.9-2.18a8.41,8.41,0,0,0-4.58-1.47c.25.71.51,1.42.76,2.14L142.2,68l-3.78-1.69c-.25-.72-.51-1.43-.76-2.14a10.18,10.18,0,0,0-4.56-1.71,3.13,3.13,0,0,1-.19.36h0a3.13,3.13,0,0,0,.19-.36c-1.37-.54-3.16-2.33-4-.13a3.16,3.16,0,0,0,2.56,4.24c.73.15,1.43.43,2.15.65.22.84.88.74,1.51.71a4.34,4.34,0,0,0,2.3,1.54l2.38-.06h0l-2.38.06a18.7,18.7,0,0,0,6.05,3.15h0A2.73,2.73,0,0,0,146.1,74l2.29.66a.41.41,0,0,0,.51.28l.82.74,4.78,3-.74,1.3c-2.47-1.18-4.87-2.55-7.59-3.13-6.31-3.46-13.22-5.31-20-7.39-2.19-.72-4.65-2.71-6.57-.47-1.35,1.58.76,3,1.93,4.29.08,1.53,1.25,1.45,2.29,1.57l0,0a2.38,2.38,0,0,0,2.32,1.51h0l2.33,1.53c.58,1.25,1.86,1.34,2.93,1.76l2.34,1.35,13,9.22.75.8h0c-.43,1.25-1.53.14-2.17.62l-3.93-1.42a3.44,3.44,0,0,0-3-1.63c-.32-.64-.95-.67-1.54-.76-3.06-1.54-5.88-3.57-9.19-4.64-2.64-1.28-5-3.44-8.22-3.09a.94.94,0,0,0-.28-.65c-.65-1.26-2.09-.9-3.07-1.49-.69-1-1.84-.69-2.79-1A3.54,3.54,0,0,0,110,75.69l-1.51-.08C107,78.22,107,78.22,104.64,78l-5.1-1.78c-1.54-.72-3-1.7-4.87-1.26-1.44-.79-2.85-1.7-4.59-1.68-3.71-1.18-3.71-1.18-3.91.87.12,1.48.12,3,2.25,3l1-.1h0l-1,.1c3.21,2.74,7.15,4.21,10.79,6.19h0l3.14,2.32v2.07c-1.69.63-2.18-1.8-3.76-1.47-.31-.68-1-.64-1.55-.75-1.14-1.65-3-1.71-4.69-2.19l-3-1c-.42-1.19-2-.23-2.47-1.37-1.58-1.16-3.19-2.24-5.26-2.26a2.79,2.79,0,0,0-2.19-.9,37.36,37.36,0,0,0-10.08-3.71l-1.54,0-2.42-.85c-1.27-1.33-3.3-1.1-3.77,0-.74,1.7.67,3.13,2.43,3.83,4,2.29,7.69,5,12.19,6.2l.72.89c-.16,1.92-1.53,1.18-2.57,1.17l-8.79-3.66c-1.74-.94-3.35-2.21-5.47-2.21v0l-1.29-.18-1-.65A5.33,5.33,0,0,0,54,77.18c-.82-.27-1.88.14-2.45-.86a5.2,5.2,0,0,0-3.7-1.56,44.6,44.6,0,0,0-5.27-2c-2.07-.51-4.15-2.12-6.38-.4a5.9,5.9,0,0,1-.59-.06c-.18-.42-.28-1.13-.56-1.21-1.24-.38-2.75-.46-3.07,1.07a3.33,3.33,0,0,0,2.69,4.18L42.35,81,56.2,89.62a2.12,2.12,0,0,0,2.35,1.31c-.36,1,2.11,1.08.84,2.42l-3.08-.11c-.52-.73-1-.13-1.53,0-.66-.13-1.44,0-1.78-.83L45.74,90l-4-1.34-1.5,0-1-.86c-1.17-1.28-2.81-1.34-4.34-1.69-2.6-1.75-5.82-1.66-8.58-2.94a16.78,16.78,0,0,0-6.82-2.39c-1.81.41-3.08-.91-4.6-1.44L5.77,77a1.86,1.86,0,0,0-.58.64A1.86,1.86,0,0,1,5.77,77c-.4-1-1.35-.75-2.13-.85-1.5-.64-3.48-1.58-4.06.54C-.88,78.4.81,79.54,2.67,79.9c2.54.49,5.06,1.12,7.59,1.69l3.07.91c4.39,2.17,9.27,2.87,13.78,4.66,1.27,1.1,2.92,1.11,4.41,1.57,2.46,2.22,5.82,1.83,8.64,3,.06-.11.13-.22.2-.33h0c-.07.11-.14.22-.2.33,1.29,1.19,2.93,1.36,4.55,1.59h0l4.66,1.51c3.37,1.72,7.19,1.65,10.73,2.73a2.63,2.63,0,0,0,3.29-1.11h0c2.73-3,.82-4.84-1.58-6.59l-.9-.36c-1.69-1.43-3-3.44-5.36-3.89l-1.23-1a4.25,4.25,0,0,0-3.38-2.16h0l-3.24-3.08c1-1.23,1.8,0,2.61.22,3.87,1,7.32,3.23,11.29,4L64,84.76c3,.92,5.11,3.7,8.46,3.76l8.33,3.27c1.85,1.48,4.1,2,6.28,2.75,1.41,1.45,3.32,1.23,5,1.26,2.42,0,3.27-1.15,1.92-3.41l-.91.08h0l.91-.08c-.5-2.12-2.66-2.61-3.9-4,0-.67,0-1.34,0-2,3,.61,5.25,3,8.38,3.07v0c1.92,1.77,4.35,2.45,6.76,3.16,2.4,2,5.44,2.24,8.29,2.93,1.23.29,2.91.12,3.26-1.73s.11-3.32-2.16-3.55l-.8-.85c-.07-1.35-1.31-1.34-2.13-1.82-1.1-1.46-2.74-2.11-4.22-3-.46-.28-2.47-1-.5-2.14,1,1.23,2.55.58,3.75,1.11a3.91,3.91,0,0,0,2.4,1.17l.75.13,6.08,2.4,2.18.74a18.73,18.73,0,0,0,9.4,3c1.69,1.42,3.44-.7,5.14.08a11.46,11.46,0,0,0,5.49,2.48,4.17,4.17,0,0,0,3.09,1.28c1.28,1.48,3.21,1.25,4.84,1.79s2.38-.63,3.06-1.64a2.08,2.08,0,0,0-.6-3,8.5,8.5,0,0,1-1.29-1.8c-2-2-3.88-4.32-6.69-5.41l3.87,4.58,1.54.8h0l0,.78.24.21-.24-.21,0-.78-1.54-.8-3.87-4.58c-1.59-2.33-4.54-3-6.24-5.21.35-1.44,1.86,0,2.41-1l2,.18c3.81,3,8.76,3.36,13,5.36a15.59,15.59,0,0,0,7.08,3.29l2.38,1.23L168.4,90l.06,0a13.23,13.23,0,0,0,6.82,2.49c1.79-.46,3.15-1.14,1.68-3.27-1.64-3.26-4.94-4.41-7.81-6.1C168.39,82.05,167.57,81,166,81l-2.26-1.67c-.61-.09-1.24-.13-1.55-.79L163,77.2c1,.46,2.28.41,3.05,1.42l5.45,1.51c3.23,1.29,6.41,2.77,9.72,3.82,1.84.59,3.13,2.81,5.46,1.87.91,1.33,2.4,1.05,3.69,1.36,2.81,1.29,5.56,2.93,8.85,1.56,2.22-3.2-1.44-3.75-2.47-5.48,1.31-1.42,2.75.58,4.09-.15,2.38.3,4,2.49,6.54,2.5h0l1.61.71c1,.87,2,1.75,3.57,1a2.79,2.79,0,0,0-2-2.42l-.76-.06c-2.72-1.69-5-4.19-8.4-4.64-2-1.82-4.62-2.07-6.93-3.1a193.62,193.62,0,0,0-23-9.28c-4.43-1.79-8.86-3.59-13.3-5.36C157.22,62.09,156,61.36,155.45,62.59ZM131.61,73.74a1.63,1.63,0,0,0-.88,1h0A1.63,1.63,0,0,1,131.61,73.74Zm-2.5,1.14a1.36,1.36,0,0,1,.18-.28,1.36,1.36,0,0,0-.18.28ZM64,75.83a7.29,7.29,0,0,0,.82,1.07A7.29,7.29,0,0,1,64,75.83Zm6.95,2h0a11.51,11.51,0,0,0-.06-1.18,11.51,11.51,0,0,1,.06,1.18,1.24,1.24,0,0,0,.85,0A1.24,1.24,0,0,1,70.91,77.84Zm10.57,4.6L80.11,81h0Zm-1.33-1.69c-.07-.4-.92-.64-1.63-.91C79.23,80.11,80.09,80.35,80.15,80.75Zm-3.84,1.69-4.68-2.38,4.68,2.38a5.16,5.16,0,0,1,2.36.89A5.16,5.16,0,0,0,76.31,82.44Zm10.08,1.32h0l-.14.22ZM34,74.83c-.52-.87-.56-1.39-.33-1.69-.23.3-.19.82.33,1.69l1.58.75Zm-23.63,6c-.78-1-2.05-.51-3.07-.79,1,.28,2.29-.17,3.07.79l2.95.91Zm4.47.85h0a25.57,25.57,0,0,0,6.91,2.51A25.57,25.57,0,0,1,14.86,81.65ZM61.28,96.51a2,2,0,0,1-1.57-.23A2,2,0,0,0,61.28,96.51Zm-.41-4.15a4.35,4.35,0,0,0-1.46-1.56h0A4.26,4.26,0,0,1,60.87,92.36Zm-5.33-5.29a7.6,7.6,0,0,1,.64,1.54,7.6,7.6,0,0,0-.64-1.54,2.89,2.89,0,0,1-2.17-.32A2.89,2.89,0,0,0,55.54,87.07ZM47.09,79.4c-.12.8.45,1.17,1,1.57-.51-.4-1.09-.77-1-1.57-.22-.51-.75-.63-1.26-.79C46.34,78.77,46.87,78.89,47.09,79.4ZM62.8,81.21c-.9-.3-1.77-.7-2.65-1C61,80.51,61.9,80.91,62.8,81.21Zm-3.42.5L57.1,80.14a10.93,10.93,0,0,1-4.86-1.09,10.93,10.93,0,0,0,4.86,1.09h0l2.28,1.57c.21.45.69.58,1.14.74C60.07,82.29,59.59,82.16,59.38,81.71ZM81,91.51l-.14.22.14-.22Zm8.52-3.05h0a1.09,1.09,0,0,0-.23-.68A1.09,1.09,0,0,1,89.47,88.46Zm-9.27-.21a1.65,1.65,0,0,1-.65.07,1.65,1.65,0,0,0,.65-.07,1.39,1.39,0,0,1,.3-.8A1.39,1.39,0,0,0,80.2,88.25Zm-4.7.28-3.07-.71,3.07.71,0-1.55Zm12.11-2,1-1.06h0Zm25.51,6.67h0l-.85-.67a7.51,7.51,0,0,1-2.45.28,7.51,7.51,0,0,0,2.45-.28Zm-5.38-12.25c0-.47,0-.94,0-1.42,0,.48,0,1,0,1.42Zm2.29,0a3.73,3.73,0,0,1,.12-.6,3.73,3.73,0,0,0-.12.6.67.67,0,0,1,.38.4A.67.67,0,0,0,110,80.92Zm7.67,1.52v0Zm-6.9,0-.8-.11.8.11a2.54,2.54,0,0,1,1.56.54A2.54,2.54,0,0,0,110.8,82.44Zm14.56,3.87-5.3-.85,5.3.85Zm0,.79c0-.26,0-.53,0-.79,0,.26,0,.53,0,.79Zm7.75.71c-1-1.07-2.55-1.41-3.76-2.2,1.21.79,2.8,1.13,3.77,2.2.6.44,1.51.58,1.91,1.23C134.6,88.39,133.69,88.25,133.08,87.81Zm33.72-2.29,4.61,1.54v.77h0v-.77l-4.61-1.54c-.56-.32-1.2-.53-1.77-.84C165.6,85,166.24,85.2,166.8,85.52Zm-4.32-2.32a1.44,1.44,0,0,1-1-.58,2.2,2.2,0,0,1-1.85.26,2.2,2.2,0,0,0,1.85-.26A1.44,1.44,0,0,0,162.48,83.2Zm35.79,3a1.51,1.51,0,0,1,.57.69,1.51,1.51,0,0,0-.57-.69A2.37,2.37,0,0,0,197.09,85,2.37,2.37,0,0,1,198.27,86.24ZM186.67,81h0l.85,0Zm-3.74,0-.82,2.26a1.6,1.6,0,0,0,.22.28,1.6,1.6,0,0,1-.22-.28h0l.82-2.26Zm9.68-.66h0l.51-.1ZM159.13,74v0Zm-13.78-1.57-4.64-3,1.56-.78h0l-1.56.78,4.64,3a4.4,4.4,0,0,0,.63.13A4.4,4.4,0,0,1,145.35,72.43Zm2.27.83a3.59,3.59,0,0,0,.32-.38,3.59,3.59,0,0,1-.32.38Zm5.27,2.38c.32-.55.64-1.1,1-1.65-.61-.94-1.18-2.18-1.86-2.3.68.12,1.25,1.36,1.87,2.3a4.27,4.27,0,0,1,2,.33,4.29,4.29,0,0,0-2-.33c-.31.55-.63,1.1-1,1.65Zm6.19-.74,0,.14h0Zm1.54,1.31a1.29,1.29,0,0,1,.17.71h0A1.29,1.29,0,0,0,160.62,76.21Zm-1.51,2.41c1,.93,2.38,1.45,3.4,2.36-1-.91-2.41-1.43-3.4-2.36Zm-1.59,0,0,.81,0-.81a10.19,10.19,0,0,0-3-1.21A10.08,10.08,0,0,1,157.52,78.67Zm1.59-.09c0-.47,0-.93,0-1.39a2,2,0,0,1,.69-.1,2,2,0,0,0-.69.1C159.14,77.65,159.13,78.11,159.11,78.58ZM186.05,78a1.38,1.38,0,0,1,.43-.77A1.38,1.38,0,0,0,186.05,78Zm-13.87,1.4-13.05-4.68h0Zm4.54-3.05h0v0Zm3.82-1.55h0a1.79,1.79,0,0,1,.78-.53A1.79,1.79,0,0,0,180.54,74.8Z" transform="translate(0.5 -61.22)" style="fill:#fff"/></svg>