<svg xmlns="http://www.w3.org/2000/svg" width='85' height='75' viewBox="0 0 75 75"><path d="M96.75,88.48c-.37-.81-.66-1.33-1.85-.67-1.88,1-2.84,2.89-4.36,4.21l-.51.57c-2,.63-3,2.23-3.73,4.08-.68.6-1,1.76-2.46,1.57a2.54,2.54,0,0,0-.24-3.9c-.94-.56-2.62-.07-3.71,1.19a17.56,17.56,0,0,1-1.57,1.52c-.37.23-.74.48-1.13.7-1.86,1-2.71,3-4,4.51a.47.47,0,0,0,0,.35c-1.79.51-2.57,2.11-3.67,3.37-1.18,0-1.11,1.1-1.53,1.77a1.93,1.93,0,0,0-2.22,1.9l-.91.5c-.11-.23.1-1-.52-.42A12.51,12.51,0,0,0,63,111.46l0,0L61.69,113c-1.77,2-4.2,3.25-5.63,5.54-1.72-.61-2,1-2.83,1.81s-2.12,1.3-2.76,2.43c-1.49,1-2.29,3-4.48,2.83.37,1.35-.86,1.34-1.53,1.81-.68,0-1.08-.17-.92-.94.49-.44.63-1.21,1.34-1.45.8-1.19,1.61-2.37,2.41-3.55a1.78,1.78,0,0,0,1.31-2c.35-.59,1.68-.12,1.44-1.34.42-.16,1.1-.21,1.21-.49.68-1.79,2.42-2.69,3.38-4.22,1.57-.63,1.87-2.5,3.28-3.29.76-.77,1.94-1.12,2.33-2.29.56-.62,1.08-1.28,1.68-1.87,4.92-4.88,9.76-9.82,14.72-14.65a40.8,40.8,0,0,0,4.51-4.41c2.5-3.34,5.91-5.84,8.53-9.06C91,76.17,93.51,75.49,93.85,73c.71-.15,1.11-.4.42-1.08a.36.36,0,0,0-.13-.35c.31-1.07-.91-1.51-1-2.5,0-.47-.47.29-.8.29h-.91c-.87,0-2-.79-2.4.79-.45,1-1.52,1.28-2.22,2S85,73,85.29,74.31c-.9.66-2.12,1-2.35,2.32-1.21,1.1-2.44,2.19-3.63,3.29-2.7,2.49-5.07,5.33-7.62,8a70.13,70.13,0,0,0-6.36,6.88,1.19,1.19,0,0,1-.42,0c-1.31-1.11-1.14.33-1.5.87-1.82.95-2.55,3-4.17,4.14h0l-1.27.6c-.54.38-1.62.14-1.47,1.29-.81.39-.8,1.37-1.38,1.92-.47.28-1.23.18-1.29,1-.09.36.07.86-.54.91-.61-.83-1.24.3-1.86,0-.18-.85-.42-1.58.62-2.24,3.08-2,4.36-5.69,7.51-7.72,1.31-.85,2.25-2.55,3.26-3.86,2.85-3.66,6.41-6.69,9-10.5.68-.17,1-.73,1.28-1.28a.23.23,0,0,0,.22-.27c.47-.5,1.11-.85,1.31-1.56.52-.4,1.28-.58,1.31-1.42.4-.43.72-.87.13-1.39-.39-1,.31-2.51-1.42-2.82a1.84,1.84,0,0,1-1-1.88c.1-1.16,1.17-1.33,1.88-1.87.68-1.92-.15-3.56-1.83-3.66-2.8-.21-4,2-5.62,3.64l-1.9,1.39h0c-.84,0-.82.58-.82,1.16-.36,0-.63-.1-1,.31-1,1.28-2.18,2.47-3.28,3.7a5.42,5.42,0,0,1-.58,1.43,5.42,5.42,0,0,0,.58-1.43c-1.2.87-2.38,1.76-3.6,2.6-.46.31-.83.57-.51,1.18l-1,1.41c-1.17-.84-1.81-.58-1.87.9-.75.4-1.52.77-1.45,1.82-1,.53-1.49,1.59-2.28,2.35-1.66-.08-2.21,1.14-2.75,2.36-4.4,3.84-8.49,8-13.49,11.17l-2.76.94c-.39-.16-.44-.52-.49-.88l0-.12c.37,0,.81.19,1-.36.66-.88,1.83-1.27,2.31-2.34,2.22-.3,1.92-3.51,4.25-3.69h0c1.23-1.27,2.47-2.53,3.7-3.79,2-1,3.26-2.9,4.94-4.3,3.11-2.59,6.1-5.33,9-8.11,2.6-2.45,5.07-5,7.58-7.58a2.2,2.2,0,0,1,.7-.49,4.73,4.73,0,0,0,2.83-3.27c1.92-1.36-.17-1.32-.65-1.85-.84-1.45-2.09-1.49-3.12-.1-.38.51-.54,1.62-1.47.4-.35-.47-.79.16-.78.35.06,1.72-1.35,2-2.45,2.57l-.9,0c-.17-.76-.42-1.42-1.37-1.41a3,3,0,0,0-4.19-2.32c-1.77-1.61-2-1.54-3.82.9l-.83.46c-.67-.1-.94.28-1.05.86a7.81,7.81,0,0,0-4.18,4.25c-1.8,1-3.42,2.14-4.14,4.18l.13.1h0l-.13-.1a10.13,10.13,0,0,0-3.22,2.82l-.89-.24-.08-.73c.51-1.28,2.22-1.66,2.4-3.19.55-.33,1.06-.86.91-1.47-.4-1.6.77-2.5,1.42-3.64l1.86-1.85h0c.59-.67,1.29-1.29.92-2.33-.48-.51.45-1.77-1-1.78a.33.33,0,0,0-.42,0c-.44-.39-.89-.77-1.34-1.15-.07-.28-.33-.78-.38-.67-.74,1.39-2.84,1.67-2.95,3.56l-.47.08a26.83,26.83,0,0,0-2.49-1.9c-.8-.49-2.2-1.18-2.35.25-.17,1.7-1.27,3.52,0,5.24-.12-.09-.22-.06-.3.07-1.29-.77-1.29-.77-1.4.92a3.16,3.16,0,0,0-.53,1.79l0,0c-.7,0-1.46-.15-1.41.94-.65,0-.76.5-.93,1l-.91.48a10.34,10.34,0,0,1-2.74,7c-1.4,1.24-.63,3.12-1.34,4.61-.23.49.66,1.18,1.32,1.11,1.13-.11,2.44.09,3.2-1.13.94-1.25,2.77-1.59,3.3-3.25L30.74,79c.7,1.11-1.23,1.75-.24,2.76H31a2.66,2.66,0,0,1,.53-1.22A2.66,2.66,0,0,0,31,81.78H30.5c-.15.53-.94.7-.78,1.4-.73.51.15,1.23-.24,1.79-.41,1,.29,1.29,1,1.58a.26.26,0,0,0,0,.34l.93,0c0-.18.06-.36.1-.53s0-.46,0-.67c0,.21,0,.44,0,.67a.26.26,0,0,0,.21,0,.26.26,0,0,1-.21,0c0,.17-.07.35-.1.53l-.93,0c-.37,1.35-1.86,2.17-1.78,3.73.45,1.06-2,2.83.82,3.3,1.38,1.43-.7,1.84-.84,2.83s-1.7,1.41-1.46,2.71c-1.65-.53-2,.66-2.35,1.81-1.63.25-2.13,1.4-2.27,2.84-1.55,3.75-1.28,4.13,2.68,3.83.2,0,.41.19.55-.11l.46-.09c1.1-.66,1.63-.26,1.74.93-1.6.94.1,2.58-.75,3.76-.14.2.82.6,1.36.09,1.31-.27,2.94.32,3.73-1.37.73-.1,1.57,0,1.83-1l2.26-1.47c.66-.22,1.42-.22,1.84-.91l2.41-2.26c.59,0,.58-.65,1-.88l4.58-3c-.14-1.48,2.08-.7,2-2.11h.18l.19,0v.92a.76.76,0,0,1-.44.94c-1-.32-.79,1.36-1.77,1l-1,1.74c.1.93-.57,1.35-1.11,1.94-.78.83-2.25,1.13-2.19,2.66-.45-.13-1.1-.8-1.31,0-.43,1.64-2,2.15-2.91,3.31A1,1,0,0,0,37,113c-1.31,1-2.71,1.85-2.81,3.73-.17.28-.34.57-.52.85-2.29-.15-1.91,2.36-3.18,3.22a1,1,0,0,0-.11-.2.36.36,0,0,0-.18-.06c-.77,1.63-2.38,2.76-2.74,4.62-.38,2.82.18,3.25,3,2.29.89.18,1.19-.75,1.86-1,1.71.49,2-1.58,3.3-1.84.59,0,.92-.31,1.35-.69a13,13,0,0,1,4.66-3.11c.27.76-.6,1.2-.53,1.9A23,23,0,0,0,38,126.93c-.06.27-.11.55-.17.82-.68.46-.65,1.26-.91,1.92-.72.31.18.6,0,.91-1.11,1.25.08,2.32.62,3s1.81.47,2.71-.14l-.05,0a5.54,5.54,0,0,0,4.64-2.85l.93-.08c.81-.86,2.06-1.27,2.76-2.08,1.11-1.27,2.76-1.67,3.87-2.95.79-.92,2.51,0,3.6-.91,2-1.36,4.31-2.41,5.61-4.64l.44-.51c2.19-.57,3.17-2.39,4.26-4.11l2.64-2,1-.38v-.48c1.13-1.08,1.52-3.19,3.74-2.76,0,.75-1.07,1-.92,1.86l-.48.44a1.67,1.67,0,0,0-1.45,1.34,3,3,0,0,1-.36.14l-.52.86a1.87,1.87,0,0,0-1.85,1.85,3.5,3.5,0,0,1-.07.45l-.91.84c-.94.51-2.35.74-1.5,2.38a1.78,1.78,0,0,0-.79,1.94c1,2.93,1,2.93,2.84,1.87l.44-.55a25.13,25.13,0,0,0,2.54-2.42,58,58,0,0,1,5.29-5c.91-1.55,2.94-2.18,3.36-4.13a10,10,0,0,0,2.3-2.37h0c.77-.66,1.67-1.2,1.88-2.31,2.39-1.41,3.3-4.08,5.14-6a6.91,6.91,0,0,0,2.12-2.44c1.27-1.62,2.79-3.07,3.42-5.11C95.9,92.75,97.39,89.92,96.75,88.48ZM64,96.13h0c-.3.39-.61.79-.94,1.16C63.42,96.92,63.73,96.52,64,96.13ZM71.9,73.55a1.25,1.25,0,0,1-.46-.57,1.25,1.25,0,0,0,.46.57Zm2.73,4a1.67,1.67,0,0,1,.91-.83,1.67,1.67,0,0,0-.91.83c-.8.24-1.52.51-1.52,1.22C73.11,78.06,73.83,77.79,74.63,77.55Zm-1.27-4.72a3.23,3.23,0,0,0-.55.12A3.23,3.23,0,0,1,73.36,72.83ZM70,73a1.64,1.64,0,0,1,2.28-1c-.31-.84.17-1,.67-1.15-.5.15-1,.31-.67,1.15A1.64,1.64,0,0,0,70,73c-1,0-1.11.82-1.38,1.5C68.88,73.77,69,72.91,70,73ZM68.17,69.7a4.52,4.52,0,0,0,1.31-.91,4.52,4.52,0,0,1-1.31.91c-.25,0-.45.3-.66.54C67.72,70,67.92,69.74,68.17,69.7Zm-2.34,9.69h0l.94.09c.39,0,.51-.23.53-.45,0,.22-.14.4-.53.45l-.94-.09a2.17,2.17,0,0,1-1.06,1.84A2.17,2.17,0,0,0,65.83,79.39Zm-5.57,9.37c-.27.58-.58,1-1,1,.41,0,.72-.4,1-1Zm2.32-7.92a5.45,5.45,0,0,0-4.07,2.39A5.45,5.45,0,0,1,62.58,80.84Zm-4.65,6.07a.66.66,0,0,1,.1.43.66.66,0,0,0-.1-.43,7.58,7.58,0,0,1-1,1.27A7.58,7.58,0,0,0,57.93,86.91ZM50,73.84a5.84,5.84,0,0,1,.64-.5,5.84,5.84,0,0,0-.64.5,6.71,6.71,0,0,0-1.55,1A6.71,6.71,0,0,1,50,73.84Zm-.45-4.65h0c-.55.42-.9,1.29-1.55,1.52C48.63,70.48,49,69.61,49.53,69.19Zm-2.26,7h0a4.14,4.14,0,0,0-.77-.67A4.48,4.48,0,0,1,47.27,76.22Zm-2.41,5.2a6.55,6.55,0,0,1-1.35.37l-.95.94.95-.94A6.55,6.55,0,0,0,44.86,81.42Zm-2.23-.63Zm-3.31,2.83c.9-.27,1.07-1.74,2.33-1.44l.92-.86-.92.86c-1.26-.3-1.43,1.17-2.33,1.44-.52-.52-.81-.32-1.06,0C38.51,83.3,38.8,83.1,39.32,83.62Zm-3.21-7.19a1.23,1.23,0,0,0-.89.55A1.23,1.23,0,0,1,36.11,76.43Zm-6.92-8.57a2.61,2.61,0,0,0,.52-.41A2.61,2.61,0,0,1,29.19,67.86Zm-6.25,38c-.16-.8.66-1.6.53-2.35h0C23.6,104.28,22.78,105.08,22.94,105.88Zm6.61-6a1.49,1.49,0,0,1-.12-.66,1.49,1.49,0,0,0,.12.66,4.67,4.67,0,0,0-.76.53A4.67,4.67,0,0,1,29.55,99.92Zm-1.86,2.79.08-.15-.08.15h0Zm0,1.4h0a2.32,2.32,0,0,0-.38.06A2.32,2.32,0,0,1,27.7,104.11Zm-.44-1.38h0l-.91-.9Zm1.81,5.32a3.68,3.68,0,0,0,.05-.5,1.09,1.09,0,0,1-.51-1,1.09,1.09,0,0,0,.51,1A2.57,2.57,0,0,1,29.07,108.05Zm-.45-1.66a1.53,1.53,0,0,0-1.7.16,1.53,1.53,0,0,1,1.7-.16L30,106Zm1.51-4.09c0,.15-.06.29-.09.44,0-.15.05-.29.09-.44a2.05,2.05,0,0,1,.95.06A2.05,2.05,0,0,0,30.13,102.3Zm2.19,8.28c-.72,0-1.2.71-1.8,1.07.6-.36,1.08-1.1,1.8-1.07a1.52,1.52,0,0,0,0-.21A1.52,1.52,0,0,1,32.32,110.58Zm3.28-3.22h0Zm1,.48-.35.11.35-.11ZM43,97.58a1.5,1.5,0,0,0-.79.87,1.5,1.5,0,0,1,.79-.87,1,1,0,0,0,.85-.37A1,1,0,0,1,43,97.58Zm4.19-.91v-.61a2,2,0,0,1-.35-1,2,2,0,0,0,.35,1C47.24,96.26,47.23,96.46,47.23,96.67Zm0,0h0l.15.1Zm6.06-7h0a2.77,2.77,0,0,0-.71-.28A2.77,2.77,0,0,1,53.31,89.69Zm0,5.56v0A1.9,1.9,0,0,0,51,94.77,1.9,1.9,0,0,1,53.28,95.25ZM50.5,93.47,51,93h0l-.48.51h0c-.39-.26-.52-.51-.5-.75C50,93,50.11,93.21,50.5,93.47Zm-1.07,3.86a.74.74,0,0,1-.48.17A.74.74,0,0,0,49.43,97.33Zm.1,9.37a.82.82,0,0,1,.72-.79.82.82,0,0,0-.72.79c-.34.17-.64.39-1,.24C48.89,107.09,49.19,106.87,49.53,106.7Zm-.43,2.53c.79,0,1.22-.63,1.82-1,0-.13,0-.27,0-.4,0,.13,0,.27,0,.4-.6.34-1,1-1.82,1l-.91.6ZM47.89,102a.53.53,0,0,0,.25.73h0A.53.53,0,0,1,47.89,102Zm-.21,17.92.41-.46-.41.46A4.2,4.2,0,0,0,47,120,4.2,4.2,0,0,1,47.68,119.91Zm-.41-11.56h0c0-.19-.06-.37-.1-.55Zm-.45,2.28h0a3.13,3.13,0,0,1-.29,1.39A3.13,3.13,0,0,0,46.82,110.63Zm-.49,2a10.2,10.2,0,0,1-.06,1.21A10.2,10.2,0,0,0,46.33,112.59Zm-7,8.26h0l.15,0Zm-.65-3.34a4.74,4.74,0,0,1,.71.79A4.74,4.74,0,0,0,38.67,117.51Zm.29-5L38,113l1-.46A6.23,6.23,0,0,1,40,111.4,6.23,6.23,0,0,0,39,112.52ZM41,119.87a.83.83,0,0,1,.6-.13A.83.83,0,0,0,41,119.87Zm1.06,0,.81-.57.15-.79-.15.79-.81.57Zm.51,8.86-.08.89c0-.3,0-.59.08-.89s.35-.37.66-.38C43,128.41,42.69,128.47,42.61,128.78Zm10.69-7.9a2.23,2.23,0,0,1-.45.94,2.23,2.23,0,0,0,.45-.94,5.6,5.6,0,0,1,1-.76A5.6,5.6,0,0,0,53.3,120.88Zm9.28-3.28h0a3,3,0,0,1,.41.08A3,3,0,0,0,62.58,117.6Zm2.73,4.23h0c.26-.09.52-.31.79-.38C65.83,121.52,65.57,121.74,65.31,121.83ZM83,98.05h0l-.12-.18Zm-4.59-.44a2,2,0,0,0,1.34-.71,2,2,0,0,1-1.34.71,15.84,15.84,0,0,0-2.62,2.68A15.84,15.84,0,0,1,78.45,97.61ZM74.2,112a2.58,2.58,0,0,0,.48,0h0A2.58,2.58,0,0,1,74.2,112Zm5-7.06-1.42,1c-.57,1.66-2.07,2.52-3.16,3.73h-.91a2.57,2.57,0,0,1,.51-2.25,9.45,9.45,0,0,0,2.67-2c.84-1,1.67-2,2.55-2.93.37-.4.81-1.08,1.43-.22C80.36,103.15,79.8,104.06,79.25,105Zm2.86,1.47-.45,0-.5-.45-.28,0,.28,0,.5.45.45,0Zm-.47-4.78h0l1.86,2.45Zm1.22-.88-1.22.79c-1.32-1.54,1.11-1.78,1-2.9C84.46,99.19,83.42,100,82.86,100.78Z" transform="translate(-20.76 -59.13)" style="fill:#c3abcc"/></svg>