<svg xmlns="http://www.w3.org/2000/svg" width="90" height="90" viewBox="0 0 90 90"><path d="M71.05,116.14l.3.25a1.56,1.56,0,0,0,.75.25l.37,0a1.19,1.19,0,0,0,.59-.1,1.1,1.1,0,0,0,.5-.29,1.14,1.14,0,0,0,.34-.47,1.11,1.11,0,0,0,.16-.57l0-.41a1.45,1.45,0,0,0-.36-.68l-.29-.26a1.45,1.45,0,0,0-.75-.24l-.37,0a1.18,1.18,0,0,0-.59.09,1.2,1.2,0,0,0-.5.29,1.12,1.12,0,0,0-.34.47,1.18,1.18,0,0,0-.16.58l0,.4A1.62,1.62,0,0,0,71.05,116.14Z" transform="translate(-41.69 -53.47)" style="fill:#fff"/><path d="M132.06,60.93a1,1,0,0,0,.47.34,1.11,1.11,0,0,0,.57.16l.4,0a1.62,1.62,0,0,0,.69-.35l.26-.3a1.55,1.55,0,0,0,.24-.75l0-.47a1.19,1.19,0,0,0-.1-.59,1.1,1.1,0,0,0-.29-.5,1.06,1.06,0,0,0-.47-.34,1.11,1.11,0,0,0-.57-.16l-.41,0a1.62,1.62,0,0,0-.69.35l-.25.3a1.45,1.45,0,0,0-.24.75l0,.47a1.09,1.09,0,0,0,.1.59A1.1,1.1,0,0,0,132.06,60.93Z" transform="translate(-41.69 -53.47)" style="fill:#fff"/><path d="M127.24,76.49a1.52,1.52,0,1,0-1.6,1.43A1.55,1.55,0,0,0,127.24,76.49Z" transform="translate(-41.69 -53.47)" style="fill:#fff"/><path d="M122.62,58.47A1.51,1.51,0,1,0,121,59.9,1.53,1.53,0,0,0,122.62,58.47Z" transform="translate(-41.69 -53.47)" style="fill:#fff"/><path d="M122.07,68.14a1.51,1.51,0,1,0-1.59,1.43A1.53,1.53,0,0,0,122.07,68.14Z" transform="translate(-41.69 -53.47)" style="fill:#fff"/><path d="M111.45,74.41A1.52,1.52,0,0,0,110,72.82a1.51,1.51,0,1,0,1.43,1.59Z" transform="translate(-41.69 -53.47)" style="fill:#fff"/><path d="M131.65,67.14a1.51,1.51,0,1,0-1.59,1.43A1.52,1.52,0,0,0,131.65,67.14Z" transform="translate(-41.69 -53.47)" style="fill:#fff"/><path d="M109.2,61.55a1.55,1.55,0,0,0-.76-.24h-.17a1.72,1.72,0,0,0-1.09.38,1.21,1.21,0,0,0-.34.47,1.18,1.18,0,0,0-.16.58l0,.4a1.53,1.53,0,0,0,.36.69l.29.25a1.46,1.46,0,0,0,.75.25h.17a1.07,1.07,0,0,0,.59-.1,1.1,1.1,0,0,0,.5-.29,1,1,0,0,0,.34-.47,1,1,0,0,0,.16-.57l0-.41a1.48,1.48,0,0,0-.35-.68Z" transform="translate(-41.69 -53.47)" style="fill:#fff"/><path d="M133.13,82.81a1.12,1.12,0,0,0,.47.34,1.08,1.08,0,0,0,.58.16l.4,0a1.62,1.62,0,0,0,.69-.35l.25-.3a1.52,1.52,0,0,0,.25-.75l0-.35a1.19,1.19,0,0,0-.1-.59,1.1,1.1,0,0,0-.29-.5,1.06,1.06,0,0,0-.47-.34,1,1,0,0,0-.57-.16L134,80a1.62,1.62,0,0,0-.69.35l-.25.3a1.52,1.52,0,0,0-.25.75v.35a1.18,1.18,0,0,0,.09.59A1.2,1.2,0,0,0,133.13,82.81Z" transform="translate(-41.69 -53.47)" style="fill:#fff"/><path d="M125.33,85.73a1.51,1.51,0,1,0,1.43,1.59A1.53,1.53,0,0,0,125.33,85.73Z" transform="translate(-41.69 -53.47)" style="fill:#fff"/><path d="M115.35,82.29a1.22,1.22,0,0,0-.16.57l0,.41a1.35,1.35,0,0,0,.35.68l.29.26a1.45,1.45,0,0,0,.75.24l.28,0a1.19,1.19,0,0,0,.59-.1,1.1,1.1,0,0,0,.5-.29,1.06,1.06,0,0,0,.34-.47,1,1,0,0,0,.16-.57l0-.41a1.53,1.53,0,0,0-.35-.68l-.3-.26a1.42,1.42,0,0,0-.75-.24l-.27,0a1.17,1.17,0,0,0-.59.1,1.19,1.19,0,0,0-.51.29A1.24,1.24,0,0,0,115.35,82.29Z" transform="translate(-41.69 -53.47)" style="fill:#fff"/><path d="M127.94,105.55a1.12,1.12,0,0,0,.34-.47,1,1,0,0,0,.16-.57l0-.41a1.51,1.51,0,0,0-.35-.69l-.29-.25a1.56,1.56,0,0,0-.76-.25h-.17a1.21,1.21,0,0,0-.59.1,1.16,1.16,0,0,0-.5.29,1.67,1.67,0,0,0-.5,1l0,.41a1.53,1.53,0,0,0,.36.69l.29.25a1.56,1.56,0,0,0,.75.25h.17a1.29,1.29,0,0,0,.59-.1A1.1,1.1,0,0,0,127.94,105.55Z" transform="translate(-41.69 -53.47)" style="fill:#fff"/><path d="M133.39,133.75a1.51,1.51,0,1,0,1.59-1.43A1.52,1.52,0,0,0,133.39,133.75Z" transform="translate(-41.69 -53.47)" style="fill:#fff"/><path d="M135.46,144.17a1.52,1.52,0,0,0-1.43-1.59,1.51,1.51,0,1,0,1.43,1.59Z" transform="translate(-41.69 -53.47)" style="fill:#fff"/><path d="M125.21,128.7a1.51,1.51,0,1,0-1.59,1.43A1.52,1.52,0,0,0,125.21,128.7Z" transform="translate(-41.69 -53.47)" style="fill:#fff"/><path d="M132.65,125.68a1.52,1.52,0,1,0-1.43-1.6A1.53,1.53,0,0,0,132.65,125.68Z" transform="translate(-41.69 -53.47)" style="fill:#fff"/><path d="M135,112.81l.26-.29a1.45,1.45,0,0,0,.24-.76l0-.35a1.72,1.72,0,0,0-.38-1.09,1.12,1.12,0,0,0-.47-.34,1.18,1.18,0,0,0-.58-.16l-.4,0a1.62,1.62,0,0,0-.69.35l-.25.3a1.56,1.56,0,0,0-.25.75l0,.35a1.17,1.17,0,0,0,.1.59,1.1,1.1,0,0,0,.29.5,1.06,1.06,0,0,0,.47.34,1,1,0,0,0,.57.16l.41,0A1.43,1.43,0,0,0,135,112.81Z" transform="translate(-41.69 -53.47)" style="fill:#fff"/><path d="M120.3,118.91a1.24,1.24,0,0,0,.34-.47,1.22,1.22,0,0,0,.16-.57l0-.41a1.35,1.35,0,0,0-.35-.68l-.29-.26a1.45,1.45,0,0,0-.75-.24l-.28,0a1.19,1.19,0,0,0-.59.1,1.1,1.1,0,0,0-.5.29,1.06,1.06,0,0,0-.34.47,1.11,1.11,0,0,0-.16.57l0,.41a1.53,1.53,0,0,0,.35.68l.3.26a1.45,1.45,0,0,0,.75.24l.28,0a1.05,1.05,0,0,0,.58-.1A1.19,1.19,0,0,0,120.3,118.91Z" transform="translate(-41.69 -53.47)" style="fill:#fff"/><path d="M115.19,103.44a1.51,1.51,0,1,0-1.59,1.43A1.53,1.53,0,0,0,115.19,103.44Z" transform="translate(-41.69 -53.47)" style="fill:#fff"/><path d="M121.11,97.81a1.49,1.49,0,0,0,.25-.75v-.35a1.18,1.18,0,0,0-.09-.59,1.2,1.2,0,0,0-.29-.5,1.12,1.12,0,0,0-.47-.34,1.18,1.18,0,0,0-.58-.16l-.4,0a1.62,1.62,0,0,0-.69.35l-.25.3a1.56,1.56,0,0,0-.25.75l0,.35a1.17,1.17,0,0,0,.1.59,1.1,1.1,0,0,0,.29.5,1.06,1.06,0,0,0,.47.34,1,1,0,0,0,.57.16l.41,0a1.51,1.51,0,0,0,.69-.35Z" transform="translate(-41.69 -53.47)" style="fill:#fff"/><path d="M102.91,95a1.1,1.1,0,0,0,.1.59,1.13,1.13,0,0,0,.28.5,1.21,1.21,0,0,0,.47.34,1.18,1.18,0,0,0,.58.16l.4,0a1.53,1.53,0,0,0,.69-.36l.25-.29a1.56,1.56,0,0,0,.25-.75l0-.35a1.17,1.17,0,0,0-.1-.59,1.19,1.19,0,0,0-.29-.51,1.24,1.24,0,0,0-.47-.34,1.22,1.22,0,0,0-.57-.16l-.41,0a1.42,1.42,0,0,0-.69.35l-.25.29a1.56,1.56,0,0,0-.25.75Z" transform="translate(-41.69 -53.47)" style="fill:#fff"/><path d="M105.66,117.78l.25-.3a1.45,1.45,0,0,0,.23-.56,1.11,1.11,0,0,0,.17-.3,1.19,1.19,0,0,0,.17-.58,1.34,1.34,0,0,0-.1-.59,1.16,1.16,0,0,0-.29-.5l-.29-.25a1.56,1.56,0,0,0-.75-.25l-.41,0a1.53,1.53,0,0,0-.69.36l-.07.06-.31.36a.41.41,0,0,0,0,.09.05.05,0,0,0,0,0c-.07.13-.13.26-.19.39a1.07,1.07,0,0,0-.07.19c0,.14,0,.29-.08.43s0,0,0,.06a.37.37,0,0,0,0,.11,1.72,1.72,0,0,0,.38,1.09,1.12,1.12,0,0,0,.47.34,1.08,1.08,0,0,0,.58.16l.4,0A1.62,1.62,0,0,0,105.66,117.78Z" transform="translate(-41.69 -53.47)" style="fill:#fff"/><path d="M133.6,95.55l.25-.29a1.54,1.54,0,0,0,.22-.57.92.92,0,0,0,.18-.3,1.18,1.18,0,0,0,.16-.58,1.1,1.1,0,0,0-.1-.59,1.16,1.16,0,0,0-.29-.5l-.29-.25a1.56,1.56,0,0,0-.75-.25l-.41,0a1.5,1.5,0,0,0-.68.36l-.07.07a3.38,3.38,0,0,0-.31.35l-.06.09s0,0,0,0-.13.26-.19.39a.6.6,0,0,0-.06.19c0,.14-.06.29-.09.43a.13.13,0,0,1,0,.06s0,.07,0,.11a1.17,1.17,0,0,0,.1.59,1.1,1.1,0,0,0,.29.5,1.06,1.06,0,0,0,.47.34,1,1,0,0,0,.57.16l.41,0A1.51,1.51,0,0,0,133.6,95.55Z" transform="translate(-41.69 -53.47)" style="fill:#fff"/><path d="M44.56,61.8a1.21,1.21,0,0,0,.47.34,1.18,1.18,0,0,0,.58.16l.4,0a1.53,1.53,0,0,0,.69-.36l.25-.29a1.46,1.46,0,0,0,.25-.75l0-.47a1.29,1.29,0,0,0-.1-.59,1.1,1.1,0,0,0-.29-.5,1.12,1.12,0,0,0-.47-.34,1,1,0,0,0-.57-.16l-.41,0a1.51,1.51,0,0,0-.69.35l-.25.3a1.49,1.49,0,0,0-.25.75l0,.47a1.1,1.1,0,0,0,.1.59A1.13,1.13,0,0,0,44.56,61.8Z" transform="translate(-41.69 -53.47)" style="fill:#fff"/><path d="M50.64,76.87a1.51,1.51,0,1,0-1.59,1.43A1.52,1.52,0,0,0,50.64,76.87Z" transform="translate(-41.69 -53.47)" style="fill:#fff"/><path d="M44.71,68.56A1.51,1.51,0,1,0,43.12,70,1.53,1.53,0,0,0,44.71,68.56Z" transform="translate(-41.69 -53.47)" style="fill:#fff"/><path d="M42.67,87.82a1.12,1.12,0,0,0,.47.34,1.08,1.08,0,0,0,.58.16l.4,0a1.62,1.62,0,0,0,.69-.35l.25-.3a1.52,1.52,0,0,0,.25-.75l0-.35a1.19,1.19,0,0,0-.1-.59,1.1,1.1,0,0,0-.29-.5,1.06,1.06,0,0,0-.47-.34A1,1,0,0,0,43.9,85l-.41,0a1.53,1.53,0,0,0-.68.35l-.26.3a1.42,1.42,0,0,0-.24.75l0,.35a1.72,1.72,0,0,0,.38,1.09Z" transform="translate(-41.69 -53.47)" style="fill:#fff"/><path d="M45.89,106.46a1.06,1.06,0,0,0,.34-.47,1,1,0,0,0,.16-.57l0-.41a1.48,1.48,0,0,0-.35-.68l-.29-.26a1.45,1.45,0,0,0-.76-.24h-.17a1.72,1.72,0,0,0-1.09.38,1.21,1.21,0,0,0-.34.47,1.18,1.18,0,0,0-.16.58l0,.4a1.53,1.53,0,0,0,.36.69l.29.25a1.56,1.56,0,0,0,.75.25h.17a1.07,1.07,0,0,0,.59-.1A1.1,1.1,0,0,0,45.89,106.46Z" transform="translate(-41.69 -53.47)" style="fill:#fff"/><path d="M41.69,136.39A1.51,1.51,0,1,0,43.28,135,1.53,1.53,0,0,0,41.69,136.39Z" transform="translate(-41.69 -53.47)" style="fill:#fff"/><path d="M47.21,146.59A1.51,1.51,0,1,0,45.62,148,1.52,1.52,0,0,0,47.21,146.59Z" transform="translate(-41.69 -53.47)" style="fill:#fff"/><path d="M46.31,123.36a1.51,1.51,0,1,0-1.43-1.59A1.53,1.53,0,0,0,46.31,123.36Z" transform="translate(-41.69 -53.47)" style="fill:#fff"/><path d="M55,105.11l.26-.29a1.45,1.45,0,0,0,.24-.75l0-.35a1.07,1.07,0,0,0-.1-.59,1.17,1.17,0,0,0-.28-.51,1.18,1.18,0,0,0-.47-.33,1.08,1.08,0,0,0-.58-.16l-.4,0a1.51,1.51,0,0,0-.69.35l-.25.29a1.46,1.46,0,0,0-.25.76l0,.35a1.09,1.09,0,0,0,.1.59,1.1,1.1,0,0,0,.29.5,1.14,1.14,0,0,0,.47.34,1.11,1.11,0,0,0,.57.16l.41,0A1.5,1.5,0,0,0,55,105.11Z" transform="translate(-41.69 -53.47)" style="fill:#fff"/><path d="M49.24,98.57l.25-.29a1.54,1.54,0,0,0,.22-.57.92.92,0,0,0,.18-.3,1.11,1.11,0,0,0,.16-.57,1.07,1.07,0,0,0-.1-.59,1.17,1.17,0,0,0-.28-.51l-.3-.25a1.56,1.56,0,0,0-.75-.25l-.4,0a1.42,1.42,0,0,0-.69.35.23.23,0,0,0-.07.07,3.65,3.65,0,0,0-.31.36l-.06.08,0,0c-.07.13-.13.26-.19.39a.6.6,0,0,0-.06.19c0,.14-.06.29-.09.44v0s0,.08,0,.11a1.29,1.29,0,0,0,.1.59,1.19,1.19,0,0,0,.29.51,1.32,1.32,0,0,0,.47.34,1.29,1.29,0,0,0,.58.16l.4,0A1.42,1.42,0,0,0,49.24,98.57Z" transform="translate(-41.69 -53.47)" style="fill:#fff"/><path d="M111.25,128.06a1.52,1.52,0,1,0-1.43-1.6A1.55,1.55,0,0,0,111.25,128.06Z" transform="translate(-41.69 -53.47)" style="fill:#fff"/><path d="M117.5,141.9a1.52,1.52,0,1,0-1.6,1.43A1.54,1.54,0,0,0,117.5,141.9Z" transform="translate(-41.69 -53.47)" style="fill:#fff"/><path d="M122.28,147.79a1.17,1.17,0,0,0,.28.51,1.32,1.32,0,0,0,.47.34,1.29,1.29,0,0,0,.58.16l.4,0a1.42,1.42,0,0,0,.69-.35l.25-.29a1.56,1.56,0,0,0,.25-.75l0-.36a1.21,1.21,0,0,0-.1-.59,1.16,1.16,0,0,0-.29-.5,1.14,1.14,0,0,0-.47-.34,1.22,1.22,0,0,0-.57-.16l-.41,0a1.45,1.45,0,0,0-.68.36l-.26.29a1.45,1.45,0,0,0-.24.75l0,.35A1.07,1.07,0,0,0,122.28,147.79Z" transform="translate(-41.69 -53.47)" style="fill:#fff"/><path d="M102.68,148.65l.22.08a1.24,1.24,0,0,0,.6.06,1.37,1.37,0,0,0,1-.52,1,1,0,0,0,.29-.49l.08-.4a1.61,1.61,0,0,0-.16-.78l-.22-.32,0,0a1.4,1.4,0,0,0-.12-.18,1.18,1.18,0,0,0-.41-.42,1.09,1.09,0,0,0-.55-.21,1.22,1.22,0,0,0-.6,0l-.37.13a1.43,1.43,0,0,0-.57.52,3.78,3.78,0,0,0-.17.35,1.55,1.55,0,0,0,0,.8,2.89,2.89,0,0,1,0,.29,1.62,1.62,0,0,0,.35.69A1.46,1.46,0,0,0,102.68,148.65Z" transform="translate(-41.69 -53.47)" style="fill:#fff"/><path d="M98.2,125.55l.29.25a1.56,1.56,0,0,0,.76.25h.27a1.07,1.07,0,0,0,.59-.1,1.17,1.17,0,0,0,.51-.28,1.81,1.81,0,0,0,.5-1.05c0-.13,0-.27,0-.4a1.51,1.51,0,0,0-.35-.69l-.29-.25a1.56,1.56,0,0,0-.76-.25h-.27a1.17,1.17,0,0,0-.59.09,1.2,1.2,0,0,0-.5.29,1.12,1.12,0,0,0-.34.47,1.08,1.08,0,0,0-.16.58l0,.4A1.51,1.51,0,0,0,98.2,125.55Z" transform="translate(-41.69 -53.47)" style="fill:#fff"/><path d="M106.32,137.33a1.52,1.52,0,1,0-1.43-1.6A1.53,1.53,0,0,0,106.32,137.33Z" transform="translate(-41.69 -53.47)" style="fill:#fff"/><path d="M86.91,148.06l.26-.29a1.55,1.55,0,0,0,.24-.76v-.21a1.07,1.07,0,0,0-.1-.59,1.17,1.17,0,0,0-.28-.51,1.81,1.81,0,0,0-1.05-.5l-.4,0a1.42,1.42,0,0,0-.69.35l-.25.29a1.56,1.56,0,0,0-.25.75v.22a1.07,1.07,0,0,0,.1.59,1.1,1.1,0,0,0,.29.5,1,1,0,0,0,.46.34,1.08,1.08,0,0,0,.58.16l.4,0A1.51,1.51,0,0,0,86.91,148.06Z" transform="translate(-41.69 -53.47)" style="fill:#fff"/><path d="M68.18,136.19l.25-.29a1.46,1.46,0,0,0,.25-.75v-.22a1.72,1.72,0,0,0-.38-1.09,1.12,1.12,0,0,0-.47-.34,1.08,1.08,0,0,0-.58-.16l-.4,0a1.62,1.62,0,0,0-.69.35l-.25.3a1.52,1.52,0,0,0-.25.75V135a1.1,1.1,0,0,0,.1.59,1.13,1.13,0,0,0,.28.5,1.21,1.21,0,0,0,.47.34,1.29,1.29,0,0,0,.58.16l.4,0A1.53,1.53,0,0,0,68.18,136.19Z" transform="translate(-41.69 -53.47)" style="fill:#fff"/><path d="M104.62,56.25A1.51,1.51,0,1,0,103,57.68,1.53,1.53,0,0,0,104.62,56.25Z" transform="translate(-41.69 -53.47)" style="fill:#fff"/><path d="M92.91,63.76a1.52,1.52,0,0,0-1.43-1.59,1.51,1.51,0,1,0,1.43,1.59Z" transform="translate(-41.69 -53.47)" style="fill:#fff"/><path d="M74.26,56.42l0,0a1.61,1.61,0,0,0,.28-.17,1.35,1.35,0,0,0,.62-.95,1.06,1.06,0,0,0,0-.61c0-.12-.08-.24-.13-.37a1.55,1.55,0,0,0-.51-.57l-.35-.17a1.5,1.5,0,0,0-.51-.07l-.17,0-.4,0a1.62,1.62,0,0,0-.69.35l-.25.3a1.46,1.46,0,0,0-.25.75l0,.2,0,.41a1.16,1.16,0,0,0,.24.53.77.77,0,0,0,.26.28,1.16,1.16,0,0,0,.5.3l.4.07.4,0A1,1,0,0,0,74.26,56.42Z" transform="translate(-41.69 -53.47)" style="fill:#fff"/><path d="M60.67,59.3l.25-.29a1.56,1.56,0,0,0,.25-.76V57.9a1.2,1.2,0,0,0-.09-.59,1.26,1.26,0,0,0-.29-.5,1.21,1.21,0,0,0-.47-.34,1.18,1.18,0,0,0-.58-.16l-.4,0a1.53,1.53,0,0,0-.69.36l-.25.29a1.56,1.56,0,0,0-.25.75l0,.35a1.17,1.17,0,0,0,.1.59,1.19,1.19,0,0,0,.29.51,1.12,1.12,0,0,0,.47.33,1.15,1.15,0,0,0,.57.17l.41,0A1.51,1.51,0,0,0,60.67,59.3Z" transform="translate(-41.69 -53.47)" style="fill:#fff"/><path d="M81.72,65.63a1.51,1.51,0,1,0-1.59,1.43A1.53,1.53,0,0,0,81.72,65.63Z" transform="translate(-41.69 -53.47)" style="fill:#fff"/><path d="M89.93,57.24a1.51,1.51,0,1,0-1.59,1.43A1.52,1.52,0,0,0,89.93,57.24Z" transform="translate(-41.69 -53.47)" style="fill:#fff"/><path d="M97.47,73.88l-.25-.37a1.21,1.21,0,0,0-.47-.34,1.18,1.18,0,0,0-.58-.16,1.09,1.09,0,0,0-.59.1,1.1,1.1,0,0,0-.5.29l-.25.29a1.46,1.46,0,0,0-.25.75l0,.41a1.58,1.58,0,0,0,.35.68l.26.37a1.12,1.12,0,0,0,.47.34,1.18,1.18,0,0,0,.58.16,1.1,1.1,0,0,0,.59-.1,1.16,1.16,0,0,0,.5-.29l.25-.29a1.56,1.56,0,0,0,.25-.75l0-.4A1.53,1.53,0,0,0,97.47,73.88Z" transform="translate(-41.69 -53.47)" style="fill:#fff"/><path d="M104.21,84.79a1.53,1.53,0,0,0-.35-.68l-.29-.26a1.55,1.55,0,0,0-.76-.24l-.27,0a1.17,1.17,0,0,0-.59.1,1.19,1.19,0,0,0-.51.29,1.12,1.12,0,0,0-.33.47A1,1,0,0,0,101,85l0,.41a1.51,1.51,0,0,0,.35.69l.29.25a1.56,1.56,0,0,0,.76.25h.27a1.07,1.07,0,0,0,.59-.1,1.1,1.1,0,0,0,.5-.29,1,1,0,0,0,.34-.47,1,1,0,0,0,.16-.57Z" transform="translate(-41.69 -53.47)" style="fill:#fff"/><path d="M87.43,83.59a1.29,1.29,0,0,0,.1.59,1.33,1.33,0,0,0,.76.84,1.15,1.15,0,0,0,.57.17l.41,0A1.42,1.42,0,0,0,90,84.8l.25-.29a1.56,1.56,0,0,0,.25-.75l0-.36a1.34,1.34,0,0,0-.1-.59,1.16,1.16,0,0,0-.29-.5,1.21,1.21,0,0,0-.47-.34,1.14,1.14,0,0,0-.57-.16l-.41,0a1.53,1.53,0,0,0-.69.36l-.25.29a1.56,1.56,0,0,0-.25.75Z" transform="translate(-41.69 -53.47)" style="fill:#fff"/><path d="M102.57,64.63A1.51,1.51,0,1,0,101,66.06,1.52,1.52,0,0,0,102.57,64.63Z" transform="translate(-41.69 -53.47)" style="fill:#fff"/><path d="M80.38,77.23a1.21,1.21,0,0,0,.34-.47,1.18,1.18,0,0,0,.16-.58l0-.4a1.53,1.53,0,0,0-.36-.69l-.29-.25a1.46,1.46,0,0,0-.75-.25l-.28,0a1.21,1.21,0,0,0-.59.1,1.16,1.16,0,0,0-.5.29,1.67,1.67,0,0,0-.5,1l0,.41a1.53,1.53,0,0,0,.36.69l.29.25a1.56,1.56,0,0,0,.75.25h.28a1.72,1.72,0,0,0,1.09-.38Z" transform="translate(-41.69 -53.47)" style="fill:#fff"/><path d="M69.35,86.52a1.62,1.62,0,0,0,.42-.64l.31-.69a1,1,0,0,0,.06-.6A1.17,1.17,0,0,0,70,84a1.1,1.1,0,0,0-.36-.44,1.22,1.22,0,0,0-.5-.3l-.4-.07a1.47,1.47,0,0,0-.77.16l-.32.22a1.58,1.58,0,0,0-.43.65l-.31.69a1,1,0,0,0-.06.6,1.16,1.16,0,0,0,.15.57,1.11,1.11,0,0,0,.36.44,1,1,0,0,0,.5.3l.4.08a1.51,1.51,0,0,0,.78-.17Z" transform="translate(-41.69 -53.47)" style="fill:#fff"/><path d="M58.14,69.16a1.52,1.52,0,1,0-1.6,1.43A1.54,1.54,0,0,0,58.14,69.16Z" transform="translate(-41.69 -53.47)" style="fill:#fff"/><path d="M66.52,73.31l.3.25a1.49,1.49,0,0,0,.75.25h.27a1.07,1.07,0,0,0,.59-.1,1.19,1.19,0,0,0,.51-.29,1.06,1.06,0,0,0,.33-.47,1.12,1.12,0,0,0,.17-.57l0-.41a1.39,1.39,0,0,0-.35-.68L68.76,71A1.55,1.55,0,0,0,68,70.8l-.28,0a1.19,1.19,0,0,0-.59.1,1.1,1.1,0,0,0-.5.29,1.06,1.06,0,0,0-.34.47,1,1,0,0,0-.16.57l0,.41A1.62,1.62,0,0,0,66.52,73.31Z" transform="translate(-41.69 -53.47)" style="fill:#fff"/><path d="M80.16,91.69a1.14,1.14,0,0,0,.34-.47,1.11,1.11,0,0,0,.16-.57l0-.41a1.45,1.45,0,0,0-.36-.68L80,89.3a1.45,1.45,0,0,0-.75-.24L79,89a1.1,1.1,0,0,0-.59.1,1.16,1.16,0,0,0-.5.29,1.08,1.08,0,0,0-.34.47,1.11,1.11,0,0,0-.16.57l0,.41a1.5,1.5,0,0,0,.36.68l.29.26a1.45,1.45,0,0,0,.75.24l.28,0a1.19,1.19,0,0,0,.59-.1A1.1,1.1,0,0,0,80.16,91.69Z" transform="translate(-41.69 -53.47)" style="fill:#fff"/><path d="M88,108.05a1.21,1.21,0,0,0-.34.47,1.29,1.29,0,0,0-.16.58l0,.4a1.53,1.53,0,0,0,.36.69l.29.25a1.46,1.46,0,0,0,.75.25h.17a1.07,1.07,0,0,0,.59-.1,1.19,1.19,0,0,0,.51-.29,1.06,1.06,0,0,0,.33-.47,1.12,1.12,0,0,0,.17-.57l0-.4a1.42,1.42,0,0,0-.35-.69l-.29-.26a1.55,1.55,0,0,0-.75-.24h-.18a1.05,1.05,0,0,0-.58.1A1.12,1.12,0,0,0,88,108.05Z" transform="translate(-41.69 -53.47)" style="fill:#fff"/><path d="M100.32,105.58A1.51,1.51,0,1,0,98.73,107,1.53,1.53,0,0,0,100.32,105.58Z" transform="translate(-41.69 -53.47)" style="fill:#fff"/><path d="M73,106.59a1.17,1.17,0,0,0,.59-.1,1.19,1.19,0,0,0,.51-.29,1.12,1.12,0,0,0,.33-.47,1.15,1.15,0,0,0,.17-.57c0-.14,0-.27,0-.41a1.51,1.51,0,0,0-.35-.69l-.29-.25a1.56,1.56,0,0,0-.76-.25h-.27a1.72,1.72,0,0,0-1.09.38,1.12,1.12,0,0,0-.34.47,1.08,1.08,0,0,0-.16.58l0,.4a1.51,1.51,0,0,0,.35.69l.29.25a1.46,1.46,0,0,0,.76.25Z" transform="translate(-41.69 -53.47)" style="fill:#fff"/><path d="M92,95.67A1.51,1.51,0,1,0,90.4,97.1,1.52,1.52,0,0,0,92,95.67Z" transform="translate(-41.69 -53.47)" style="fill:#fff"/><path d="M92.86,120.61l.25-.29a1.56,1.56,0,0,0,.25-.75l0-.41a1.45,1.45,0,0,0-.36-.68l-.25-.37a1.12,1.12,0,0,0-.47-.34,1.18,1.18,0,0,0-.58-.16,1.09,1.09,0,0,0-.59.1,1,1,0,0,0-.5.29l-.25.29a1.46,1.46,0,0,0-.25.75l0,.4a1.62,1.62,0,0,0,.35.69l.26.37a1.21,1.21,0,0,0,.47.34,1.18,1.18,0,0,0,.58.16,1.1,1.1,0,0,0,.59-.1A1.16,1.16,0,0,0,92.86,120.61Z" transform="translate(-41.69 -53.47)" style="fill:#fff"/><path d="M89,131l.25-.29a1.46,1.46,0,0,0,.25-.75l0-.36a1.1,1.1,0,0,0-.1-.59,1.13,1.13,0,0,0-.28-.5,1.21,1.21,0,0,0-.47-.34,1.18,1.18,0,0,0-.58-.16l-.4,0a1.53,1.53,0,0,0-.69.36l-.25.29a1.46,1.46,0,0,0-.25.75l0,.35a1.07,1.07,0,0,0,.1.59,1.17,1.17,0,0,0,.28.51,1.81,1.81,0,0,0,1,.5l.4,0A1.42,1.42,0,0,0,89,131Z" transform="translate(-41.69 -53.47)" style="fill:#fff"/><path d="M63.81,125.12a1.06,1.06,0,0,0,.34-.47,1.11,1.11,0,0,0,.16-.57l0-.41a1.53,1.53,0,0,0-.35-.68l-.3-.26a1.45,1.45,0,0,0-.75-.24l-.28,0a1.05,1.05,0,0,0-.58.1,1.13,1.13,0,0,0-.51.29,1.08,1.08,0,0,0-.34.47,1.22,1.22,0,0,0-.16.57l0,.41a1.5,1.5,0,0,0,.36.68l.29.26a1.45,1.45,0,0,0,.75.24l.28,0a1.19,1.19,0,0,0,.59-.1A1.1,1.1,0,0,0,63.81,125.12Z" transform="translate(-41.69 -53.47)" style="fill:#fff"/><path d="M80.78,125.29,81,125a1.46,1.46,0,0,0,.25-.75l0-.36a1.1,1.1,0,0,0-.1-.59,1.16,1.16,0,0,0-.29-.5,1.08,1.08,0,0,0-.47-.34,1.22,1.22,0,0,0-.57-.16l-.41,0a1.5,1.5,0,0,0-.68.36l-.26.29a1.45,1.45,0,0,0-.24.75l0,.35a1.07,1.07,0,0,0,.1.59,1.17,1.17,0,0,0,.28.51,1.32,1.32,0,0,0,.47.34,1.29,1.29,0,0,0,.58.16l.4,0A1.42,1.42,0,0,0,80.78,125.29Z" transform="translate(-41.69 -53.47)" style="fill:#fff"/><path d="M93.92,140.32l.25-.3a1.56,1.56,0,0,0,.25-.75l0-.35a1.17,1.17,0,0,0-.1-.59,1.1,1.1,0,0,0-.29-.5,1.06,1.06,0,0,0-.47-.34,1,1,0,0,0-.57-.16l-.41,0a1.51,1.51,0,0,0-.69.35l-.25.29a1.56,1.56,0,0,0-.25.76l0,.35a1.31,1.31,0,0,0,.1.59,1.1,1.1,0,0,0,.29.5,1.12,1.12,0,0,0,.47.34,1.15,1.15,0,0,0,.58.16l.4,0A1.62,1.62,0,0,0,93.92,140.32Z" transform="translate(-41.69 -53.47)" style="fill:#fff"/><path d="M69.3,147.19a1.51,1.51,0,1,0-1.59,1.43A1.53,1.53,0,0,0,69.3,147.19Z" transform="translate(-41.69 -53.47)" style="fill:#fff"/><path d="M58.06,145.05a1.14,1.14,0,0,0,.44-.37,1.16,1.16,0,0,0,.3-.5l.07-.4a1.47,1.47,0,0,0-.16-.77l-.22-.32,0,0a.94.94,0,0,0-.12-.18,1.21,1.21,0,0,0-.4-.41,1.13,1.13,0,0,0-.55-.21,1.26,1.26,0,0,0-.61,0l-.37.13a1.55,1.55,0,0,0-.57.51l-.17.36a1.45,1.45,0,0,0,0,.8l0,.29a1.53,1.53,0,0,0,.36.69,1.62,1.62,0,0,0,.64.42l.22.08a1.24,1.24,0,0,0,.6.06A1.17,1.17,0,0,0,58.06,145.05Z" transform="translate(-41.69 -53.47)" style="fill:#fff"/><path d="M77.76,141.77a1.45,1.45,0,0,0,.68-.36l.3-.33a1.21,1.21,0,0,0,.34-.47,1.18,1.18,0,0,0,.16-.58,1.09,1.09,0,0,0-.1-.59,1.1,1.1,0,0,0-.29-.5l-.29-.25a1.46,1.46,0,0,0-.75-.25l-.41,0a1.58,1.58,0,0,0-.68.35l-.3.34a1.21,1.21,0,0,0-.34.47,1.29,1.29,0,0,0-.16.58,1.21,1.21,0,0,0,.1.59,1.16,1.16,0,0,0,.29.5l.29.25a1.56,1.56,0,0,0,.75.25Z" transform="translate(-41.69 -53.47)" style="fill:#fff"/><path d="M55.61,132.59l.3-.33a1.21,1.21,0,0,0,.34-.47,1.29,1.29,0,0,0,.16-.58,1.19,1.19,0,0,0-.1-.59,1.1,1.1,0,0,0-.29-.5l-.29-.25a1.46,1.46,0,0,0-.75-.25l-.41,0a1.62,1.62,0,0,0-.69.35l-.29.34a1.12,1.12,0,0,0-.34.47,1.18,1.18,0,0,0-.16.58,1.1,1.1,0,0,0,.1.59,1.06,1.06,0,0,0,.29.5l.29.25a1.56,1.56,0,0,0,.75.25l.4,0A1.53,1.53,0,0,0,55.61,132.59Z" transform="translate(-41.69 -53.47)" style="fill:#fff"/><path d="M65.89,107.51a1.52,1.52,0,0,0-1.43-1.59,1.55,1.55,0,0,0-1.59,1.43,1.51,1.51,0,0,0,3,.16Z" transform="translate(-41.69 -53.47)" style="fill:#fff"/><path d="M62.75,97.42l.25-.29a1.46,1.46,0,0,0,.25-.75l0-.41a1.58,1.58,0,0,0-.35-.68l-.26-.37a1.12,1.12,0,0,0-.47-.34,1.18,1.18,0,0,0-.58-.16,1.1,1.1,0,0,0-.59.1,1.16,1.16,0,0,0-.5.29l-.25.29a1.56,1.56,0,0,0-.25.75l0,.4a1.53,1.53,0,0,0,.36.69l.25.37a1.21,1.21,0,0,0,.47.34,1.18,1.18,0,0,0,.58.16,1.09,1.09,0,0,0,.59-.1A1.1,1.1,0,0,0,62.75,97.42Z" transform="translate(-41.69 -53.47)" style="fill:#fff"/><path d="M59.76,84.24l.3-.33a1.32,1.32,0,0,0,.34-.47,1.29,1.29,0,0,0,.16-.58,1.19,1.19,0,0,0-.1-.59,1.1,1.1,0,0,0-.29-.5l-.29-.25a1.56,1.56,0,0,0-.75-.25l-.41,0a1.53,1.53,0,0,0-.69.36l-.29.33a1.12,1.12,0,0,0-.34.47,1.18,1.18,0,0,0-.16.58,1.09,1.09,0,0,0,.1.59,1.13,1.13,0,0,0,.28.5l.3.25a1.56,1.56,0,0,0,.75.25l.4,0A1.53,1.53,0,0,0,59.76,84.24Z" transform="translate(-41.69 -53.47)" style="fill:#fff"/><path d="M57.74,115.14a.77.77,0,0,0,.28-.26.75.75,0,0,0,.21-.32,1.19,1.19,0,0,0,.17-.58,1.48,1.48,0,0,1,0-.21,1.72,1.72,0,0,0-.38-1.09s0,0,0,0a1,1,0,0,0-.11-.17,1.08,1.08,0,0,0-.41-.41,1.09,1.09,0,0,0-.55-.21,1.11,1.11,0,0,0-.6,0l-.37.13a1.58,1.58,0,0,0-.57.52c-.06.12-.12.23-.17.35a1.55,1.55,0,0,0,0,.8c0,.06,0,.12,0,.18a4.51,4.51,0,0,0,.17.52s0,.09.07.13a4.44,4.44,0,0,0,.27.38l.06.06.29.25.35.18.4.07a1.07,1.07,0,0,0,.59-.1A.76.76,0,0,0,57.74,115.14Z" transform="translate(-41.69 -53.47)" style="fill:#fff"/></svg>