<svg xmlns="http://www.w3.org/2000/svg" viewBox="0 0 180 180"><g style="isolation:isolate"><circle cx="90" cy="90" r="90" transform="translate(-1.59 1.62) rotate(-1.02)" style="fill:#9e589e"/><g style="mix-blend-mode:multiply"><path d="M72,177.93l-8.66-5.75-1.17.82-4.34-4.54c-6.2-6.93-7.72-6.39-10.36-7.63-9.26-8.93-11.4-6.64-18.84-12.71-6.68-6.23-11.73-9.73-14.85-10.33a90.1,90.1,0,0,0,58.76,40.5Z" style="fill:#9e589e"/><path d="M173,82.47c2.32,1.88,4.78,4,7,5.65a89.71,89.71,0,0,0-1.25-13.3c-6.64-9.24-11-11.77-17-19-4.85-9.11,4.54,1.93,2.57-3.12,2,.32,7.21,5.66,11.09,8.89a89.14,89.14,0,0,0-4.35-10.75c-7.41-7.39-15-15.05-18.34-15.65-9.08-9.67-12.16-9.73-18.21-14.56Q123,11.09,112.25,2.78A90.12,90.12,0,0,0,90,0c-1.34,0-2.66,0-4,.1,4.59,4.24,8.67,7.65,10.46,7.32-.53-1-.45-1.19,0-1-.2.14-.36.25,0,1l15.14,14.85,4,9.61c-10.14-8.31-21.79-19-26.9-19.31L84.33,8.78a108.66,108.66,0,0,0-8.78-7.61A89.3,89.3,0,0,0,57.87,5.93a7.65,7.65,0,0,0,.79.55C65.9,13.85,71.92,19,76.4,21.81a50.67,50.67,0,0,0,5,5.5C82.77,28.52,83.65,29,84,28.65l4.51,2.66c.23.29.44.57.65.8a5.59,5.59,0,0,0,.52.54.62.62,0,0,0,.32.2c.06,0,.09-.05.06-.17l3.7,3.93,16.13,15.14,4.8,8.09c-6.8-5.63-14.34-12.43-18.86-14.38-19.22-17-32.25-24.19-46.13-32.8-.73-.48-1.6-1.14-2.5-1.85-1.55.84-3.06,1.74-4.56,2.66,5.48,10.07,13,17.32,19.24,24.31,6.39,9,7,7.89,8.27,8A58.6,58.6,0,0,0,75.53,52c1.44,1.37,2.38,1.9,2.67,1.5l8.14,7.78c5.62,7.07,7,6.91,9.56,8.81l7.41,6.7,48.25,47.44,3.89,4.33c4.83,7.62-.61,1.66.87,4.84l-8.93-6.25a59.57,59.57,0,0,0-6-6.48c-1.59-1.4-2.64-1.93-3.06-1.53-2.89-3.61-3.51-3.44-4.34-3.65C125.22,108,114.63,97.56,107.63,93c-7.35-6.13-18.12-17.62-19.18-13.8a38.82,38.82,0,0,0-2.91-3.69c-5.71-7.1-5.35-4.18-8.55-7.14-4.67-5.53-4.29-3.07-6.31-4.39a39.7,39.7,0,0,0-5.6-5.56c-1.38-1-2.14-1.05-2.22-.15l-1.51.35C71,74.9,71,74.9,68.24,74.89L56.9,67.14c-4.17-3.42-9.36-8.42-9-4.8-4.39-3.89-9.25-8.5-10.52-7.43-7.77-5-7.77-5,.55,7.27,6.21,8.69,12.5,17.68,14.15,16.52,13.83,14.45,23,21,34,30.72l12,12,8.56,12.24c1.29,4.65-9.14-9.46-9-6.64-3-3.86-3.42-3.24-4.3-3.6C85.66,114.3,84,115,80.66,113l-6.47-4.28c-5.25-6.81-2.51-.27-7.59-6.75-6-6-11.75-11.51-13.45-10.5A28.78,28.78,0,0,0,49.51,88c-.94-.72-1.55-.91-1.78-.57-9.56-8.42-17.37-14-23.2-16.45l-1.2.84-5.39-3.71c-6.49-7.17-7.12-4.71-2.94,2.06,6.45,10.45,13.46,18.14,17.73,21.32,12.58,11.36,26.66,25.38,35.13,30l4.24,4.87c7.81,11.44,3.69,7.81,2.83,8.32L53,117.8c-5.24-4.61-11.74-11.25-13.4-10.09l-1.74-.36-3.47-3.3a44.74,44.74,0,0,0-6-5.57c-1.53-1.1-2.55-1.39-3-.86-1.75-1.15-.88,1.86-5.46-3.75A51.19,51.19,0,0,0,13.85,88c-1.6-1.24-2.71-1.69-3.25-1.33Q5.23,82.34.66,79.29A90.18,90.18,0,0,0,0,90c0,2.45.13,4.86.32,7.26,1.28,1.47,2.45,2.71,3.46,3.68a9.5,9.5,0,0,0,3.08,2.25l25.25,23.37L78.54,170a47.88,47.88,0,0,0,5.18,5.85c1.32,1.18,2,1.4,2.07.62A25.08,25.08,0,0,0,88.42,180c.53,0,1,0,1.58,0h.42c-1.66-1.9-3.19-3.54-4.5-4.78,1.31,1.23,2.84,2.87,4.51,4.78,1.42,0,2.84,0,4.25-.11-3.63-4.31-7.2-8-10.77-11.53l-2.19-1.64c-7.23-7.54-16.56-18.71-20.26-20.08l-5.1-5.25A89.66,89.66,0,0,0,49,133.26c-2-1.9-3.47-2.87-4.24-2.81L29.54,114c-4.31-7.81,1.4-1,2.94-.12,7.15,3.81,19.06,15.12,25.34,17.51l6.7,5.61c6.15,3.8,19.28,19.09,22.14,17.62l20,14.8a73.84,73.84,0,0,0,7.91,7.15,88.86,88.86,0,0,0,10.48-3.65c-1.63-2.16-3.46-4.51-5.62-7.14-9.16-12.26-12.87-14-19.58-21.53l-8.27-11.83c4.86,2,16.49,14.88,19.22,13.59,8.82,9.42,13.52,12.12,18.33,15a76,76,0,0,0,6.82,6.36q3.89-2.31,7.51-5c-.12-.2-.24-.37-.37-.57-7.37-11.13-13.64-19.69-16.36-19.81l-4.14-4.6c-5.63-7.94-6.56-7.21-9.18-9.6-6.89-8-10.86-11-15.69-15.44A29.52,29.52,0,0,1,88.49,100c5.87,6.73,4.39,2,7.51,4.52,3.23,3.55,5.6,5.54,6.71,5.61l1.12.36,14.66,10.88,4.76,3.19c9.72,9.25,16.53,13.6,19.73,12.62,7.18,7.48-.22-6,4.33-2.33,5.67,5.87,10.15,9.65,13.15,11.12a90.73,90.73,0,0,0,6.92-10c-.35-.43-.7-.88-1-1.27a35.44,35.44,0,0,0-2.9-3.12c-2.63-2.92-5.47-6.26-8.44-9.94-9.83-10.73-20.89-23.43-27.58-28.34C116.54,80.37,111.48,78,101,65.88c-5.68-8.71,1.45-1-2.25-7.23l2.3,0c15.37,15.66,20.72,15.09,32.29,24.61,8.53,8.82,15.11,14.19,19.12,15.6l6.94,6,8.11,6.3,0,0a94.66,94.66,0,0,0,7.9,7.11q1.26-3.84,2.18-7.81c-1.67-2.37-3.83-5.16-6.68-8.54C156.21,83.45,148.88,78.45,139.66,70c-5-5.91-10-11.67-11.22-10.82l-8.66-8.64c-.85-.2-1.51-.1-4.48-3.83l-4.91-8.36c2.68,2.17,3.47,1.18,8.25,6.73l10.49,6C137,56.93,145.58,64,152.5,68.36c3.87,2.48,14.05,14.91,12,8.08C170.69,83.81,170.69,81.34,173,82.47Zm-92.31,5c.78,1.12,1.53,2.2,2.22,3.17C82.15,89.57,81.41,88.5,80.67,87.44Zm4,1.93s0,0,0,0l-.22-.17Zm.78.76.06.05c.34.37.71.83,1.11,1.35C86.2,91,85.8,90.51,85.45,90.13ZM41.3,92.31v-.08c.62.45.86.28.66-.46C42.19,92.6,42,92.79,41.3,92.31Zm23.22,24.26v-.08c1.06.11,3,1.48,5.52,4C67.45,118,65.55,116.62,64.52,116.57Zm66.43.83.19.14c-5.2-5.79-7.82-7-12-11,4.21,4,6.86,5.15,12,11,2.28,2.28,3.57,2.61,6.57,6.23C134.53,120,133.25,119.67,131,117.4Zm3.85-43.27.18.13a2.81,2.81,0,0,1-1.2-.79,23.59,23.59,0,0,1-2-2.09C133.2,73,134.27,74,134.8,74.13ZM96.07,34.65c-2-3.43-4-6.85-6-10.3-3.81-4.58-8.56-10.52-10.37-12.17,1.81,1.65,6.56,7.59,10.38,12.16.32-.68,1.32-.38,2.92.86-1.6-1.24-2.6-1.53-2.92-.86,2,3.42,4.06,6.85,6,10.3ZM117.38,53c-1.3-1.23-2.65-2.55-4.15-4.16C114.73,50.49,116.08,51.81,117.38,53Zm-4.31-4.39-.21-.3c-1.94-2.78-3.84-5.5-5.75-8.22C109.25,43.13,111.14,45.86,113.07,48.65Z" style="fill:#9e589e"/></g><path d="M48.85,69.69V51h80.47V69.69H100.45v76.52H77.76V69.69Z" style="fill:#242619"/><path d="M48.85,69.69V51h80.47V69.69H100.45v76.52H77.76V69.69Z" style="fill:#ecf3f6"/></g></svg>